<svg xmlns="http://www.w3.org/2000/svg" width="223.132" height="243.389" viewBox="0 0 223.132 243.389"><defs><style>.a{fill:#a4e7e2;}.b{fill:#34acbf;}.c{fill:#dbdbda;}.d{fill:none;stroke:#168e9d;stroke-miterlimit:10;}.e{fill:#454c53;}.f{fill:#168e9d;}.g{fill:#64c21b;}.h{fill:#a1a1a1;}.i{fill:#bcbcbc;}</style></defs><g transform="translate(0 -11)"><g transform="translate(46.708 11)"><g transform="translate(0 42.378)"><rect class="a" width="129.717" height="189.264"/><rect class="b" width="129.717" height="27.831" transform="translate(0 21.975)"/><rect class="b" width="129.717" height="27.831" transform="translate(0 55.783)"/><rect class="b" width="129.717" height="27.831" transform="translate(0 89.591)"/><rect class="b" width="129.717" height="27.831" transform="translate(0 123.399)"/><rect class="b" width="129.717" height="27.831" transform="translate(0 157.207)"/></g><rect class="b" width="63.39" height="17.749" transform="translate(33.164)"/><rect class="c" width="86.303" height="220.536" transform="translate(21.707 11.105)"/><path class="d" d="M373.854-103.281" transform="translate(-363.089 265.56)"/><g transform="translate(30.628 31.273)"><rect class="e" width="11.906" height="27.892"/><rect class="e" width="11.906" height="27.892" transform="translate(18.852)"/><rect class="e" width="11.906" height="27.892" transform="translate(37.703)"/><rect class="e" width="11.906" height="27.892" transform="translate(56.555)"/></g><g transform="translate(30.628 65.081)"><rect class="e" width="11.906" height="27.892"/><rect class="e" width="11.906" height="27.892" transform="translate(18.852)"/><rect class="e" width="11.906" height="27.892" transform="translate(37.703)"/><rect class="e" width="11.906" height="27.892" transform="translate(56.555)"/></g><g transform="translate(30.628 98.889)"><rect class="e" width="11.906" height="27.892"/><rect class="e" width="11.906" height="27.892" transform="translate(18.852)"/><rect class="e" width="11.906" height="27.892" transform="translate(37.703)"/><rect class="e" width="11.906" height="27.892" transform="translate(56.555)"/></g><g transform="translate(30.628 132.696)"><rect class="e" width="11.906" height="27.892"/><rect class="e" width="11.906" height="27.892" transform="translate(18.852)"/><rect class="e" width="11.906" height="27.892" transform="translate(37.703)"/><rect class="e" width="11.906" height="27.892" transform="translate(56.555)"/></g><g transform="translate(30.628 166.504)"><rect class="e" width="11.906" height="27.892"/><rect class="e" width="11.906" height="27.892" transform="translate(18.852)"/><rect class="e" width="11.906" height="27.892" transform="translate(37.703)"/><rect class="e" width="11.906" height="27.892" transform="translate(56.555)"/></g><rect class="f" width="30.427" height="28.737" transform="translate(49.645 200.312)"/></g><g transform="translate(187.491 203.633)"><path class="g" d="M462.162-63.2a11.06,11.06,0,0,0,11.06-11.06,11.059,11.059,0,0,0-11.06-11.06,11.061,11.061,0,0,0-11.06,11.06A11.062,11.062,0,0,0,462.162-63.2Z" transform="translate(-450.54 85.324)"/><rect class="h" width="23.245" height="24.229" transform="translate(23.245 43.741) rotate(180)"/></g><g transform="translate(11.551 203.633)"><path class="g" d="M358.08-63.2a11.06,11.06,0,0,1-11.059-11.06,11.059,11.059,0,0,1,11.059-11.06,11.059,11.059,0,0,1,11.06,11.06A11.06,11.06,0,0,1,358.08-63.2Z" transform="translate(-346.458 85.324)"/><rect class="h" width="23.245" height="24.229" transform="translate(0 19.512)"/></g><g transform="translate(0 227.358)"><rect class="i" width="223.132" height="12.031" transform="translate(0 15)"/></g></g></svg>