<?xml version="1.0" encoding="utf-8"?>
<!-- Generator: Adobe Illustrator 23.0.6, SVG Export Plug-In . SVG Version: 6.00 Build 0)  -->
<svg version="1.1" id="Layer_1" xmlns="http://www.w3.org/2000/svg" xmlns:xlink="http://www.w3.org/1999/xlink" x="0px" y="0px"
	 viewBox="0 0 2479.7 281.8" style="enable-background:new 0 0 2479.7 281.8;" xml:space="preserve">
<style type="text/css">
	.st0{fill:#BCBCBC;}
	.st1{fill:#FFF4D4;}
</style>
<path class="st0" d="M1066.3,239.7v-36.3h-4.4v-7.6h-15v7.5h-6.3v-3.9h-2.9v-4.7l-6.5-2.9l-5.9,2.3l-5.1-2.3l-5.5,1.8v10.1h-2.7
	v36.7h-3.6v-19h-4.6v-40.2h-5.5v-8.8H978v8.9h-20.6v62.3h-9.5v-22.7h-3.8v-39.7h-6.7v-8.6h-6.1v-6l-5.3-2.1l-6.5,2.3v4.5h-7v9.9
	h-12.2v2.3h-5.1v20.1h-4.4V99.2h-7.2v-4.4h-16.4V83.4h-9.3v-7l-7.6-3.1l-7.6,2.9v4.2h-7.4v15.2h-8.2V160H811v10.4h-12.8v-12.5
	l-29.9,13.8H761V208h-15.4v3.7h-8.4v7.9h-5.7v-7.5H713v27.4h-4.4v-36h-3.2v-22.5h-3.6v-16.2l-5.9-6V148l-5.5-2.1l-6.1,2.6v10.4
	l-4.2,6.2v-10.7h-21.3v10.5h-3v38.4h-3.4v17h-4.4v-17h-2.3v-22.4h-5.7v-8.3h-20.9v8.3l-20.6-0.2V192l-3.6,1.8v9.6h-10.5v-79.5h-5.1
	V110h-20v13.6h-20.9v81.1h-7v-56.6h1.9v-3.7H526v-12.2h-8.2v-7.5l-8.4-2.9l-7.6,2.8v7.6h-10.5v12.7H475v3.4h-7.6v63.1h-4.6v-30.7
	h-8.2v-5.5h3.2v-8.9l-5.7-2.4l-6.3,2.4v8.9h3.2v5.7h-7.6v-10.5h-8.2v-44.6h-21.9v-14.3h-20.9v14.3h-3.6v11.8h-14.1v12.8H369V87.2
	h-13.7V71.1l-8.4-6.3l-8,6.3v16.2h-12.9v4.2H320v148.1h-30.3v-36h-4.4v-63.8h-5.9v-3.2h-12.2v-13.5h-7.2v-7.4l-5.5-3.1l-5.7,3.1v9.2
	h-6.3v12h-8.6v108.7h-5.3v-39.6h1.3v-2.8h-5.1v-7.5H209v7.5h-8.8v-7.9c-0.5-2.3-3.2-3.9-6.2-3.8c-5.5,0-6.1,2.5-6.1,2.5
	s-1.1-2.4-6.6-2.4c-4.8,0-5.3,3.7-5.3,3.7v8h-3.6v2.3h1.9V263h-6.3v-57.3h1.9v-2.3h-4.9v-7.9h-15.4v7h-9.5v-8.1c0,0-1.1-2.6-5.9-2.6
	c-2.4-0.1-4.7,0.9-5.9,2.6c0,0-0.8-2.7-5.8-2.7c-2.3,0-4.4,1-5.6,2.5v9.1h-2.5v36.5h-4.4V130.6h1.7v-3.4h-7v-12.7H80.5v12.5H56
	v112.7H45.5v-56.5h1.7v-2.6h-5.9v-9.4H23v9.4h-8v-5.4h2.1v-9.1l-5.5-2.6l-6.7,2.9v8.9h2.1v5.4H0v100.9h1066.3"/>
<path class="st0" d="M1288.8,272.5h17.4v-31.1h21.9v-9.5h22.5v8.2h9v-16h35.9v-9.5h14.6v8.2h9v-51.5h9.5v-21.2l5.6-3.5l6.2,3.5v18.6
	h6.2v-9.9h27.1v10.2h7.6v87.6h3.8v-70.4h17.3v-13.3h26.1v10.7h4.2v91.8h65.3v-16.2h5.1V110.8h6.7v-5.5h12.6V86.5h14.7v2.6h9.7v15.2
	h6.7v118.1h13.9v-9.1h15.6v-4.9h27.4v61.3h14.7v-68.1h17.7v-11.4h24.4v9.4h7.2v75.6h13.5V168.5h15.2v-15.9h26.1v14.6h4.2v56.1h11
	v-23h11.4v-14.6l7.6-3.6l6.3,3.6v13h21.9v32.8h5.1v-83.1h47.6v120.4h16.9v-27.9h9.7v-18.5h8.8v-13.9h18.1v14.9h19.8v50.3h9.7v-73.3
	h46.3v73.3h16.9V112.7h20.6v-25h23.6v24.3h5.5V274h4.2v-73.3h51.4v68.8h16v-11.4h27.8v5.2h20.6v14.3h8.8v-78.2l14.5-11.2h26.3v65.7
	h11.4v12.3h60.2v9.1h8.8v-34.7h23.2v-9.1h23.2v6.8h9.3v-71.7h11.4v-7.1h22.3v121.3l-1191,1"/>
<rect x="351.9" y="169.6" transform="matrix(-1.836970e-16 1 -1 -1.836970e-16 532.8106 -182.2841)" class="st1" width="11.4" height="11.4"/>
<rect x="319.7" y="109" transform="matrix(-1.836970e-16 1 -1 -1.836970e-16 443.8684 -218.0158)" class="st1" width="22.5" height="7.9"/>
<rect x="81.4" y="149.6" transform="matrix(6.123234e-17 -1 1 6.123234e-17 -68.1763 240.4265)" class="st1" width="9.4" height="9.4"/>
<rect x="92.6" y="203.3" transform="matrix(6.123234e-17 -1 1 6.123234e-17 -110.6924 305.2632)" class="st1" width="9.4" height="9.4"/>
<rect x="92.6" y="138.5" transform="matrix(6.123234e-17 -1 1 6.123234e-17 -45.934 240.4526)" class="st1" width="9.4" height="9.4"/>
<rect x="153" y="224.1" transform="matrix(6.123234e-17 -1 1 6.123234e-17 -71.0937 384.493)" class="st1" width="7.3" height="7.3"/>
<rect x="153" y="215.5" transform="matrix(6.123234e-17 -1 1 6.123234e-17 -62.4537 375.8123)" class="st1" width="7.3" height="7.3"/>
<rect x="7.1" y="191.9" transform="matrix(6.123234e-17 -1 1 6.123234e-17 -184.8632 210.3368)" class="st1" width="11.4" height="11.4"/>
<rect x="17.6" y="191.9" transform="matrix(6.123234e-17 -1 1 6.123234e-17 -174.3474 220.8526)" class="st1" width="11.4" height="11.4"/>
<rect x="267.6" y="226.8" transform="matrix(-1.836970e-16 1 -1 -1.836970e-16 501.1402 -40.7613)" class="st1" width="6.7" height="6.7"/>
<rect x="275.5" y="226.8" transform="matrix(-1.836970e-16 1 -1 -1.836970e-16 509.0808 -48.7019)" class="st1" width="6.7" height="6.7"/>
<rect x="238.3" y="149.2" transform="matrix(-1.836970e-16 1 -1 -1.836970e-16 398.8632 -89.1789)" class="st1" width="11.4" height="11.4"/>
<rect x="183.3" y="224.5" transform="matrix(6.123234e-17 -1 1 6.123234e-17 -41.2684 419.1947)" class="st1" width="11.4" height="11.4"/>
<rect x="196.8" y="211.1" transform="matrix(6.123234e-17 -1 1 6.123234e-17 -14.3316 419.2263)" class="st1" width="11.4" height="11.4"/>
<rect x="844.6" y="101.6" transform="matrix(-1.836970e-16 1 -1 -1.836970e-16 957.6212 -742.9896)" class="st1" width="11.4" height="11.4"/>
<rect x="831.1" y="101.6" transform="matrix(-1.836970e-16 1 -1 -1.836970e-16 944.1054 -729.4738)" class="st1" width="11.4" height="11.4"/>
<rect x="831.1" y="115.1" transform="matrix(-1.836970e-16 1 -1 -1.836970e-16 957.5896 -716.0527)" class="st1" width="11.4" height="11.4"/>
<rect x="873.3" y="115.1" transform="matrix(-1.836970e-16 1 -1 -1.836970e-16 999.7158 -758.1789)" class="st1" width="11.4" height="11.4"/>
<rect x="567.5" y="175.3" transform="matrix(4.488149e-11 -1 1 4.488149e-11 392.1894 754.0843)" class="st1" width="11.4" height="11.4"/>
<rect x="553.9" y="161.6" transform="matrix(4.488149e-11 -1 1 4.488149e-11 392.3684 726.8737)" class="st1" width="11.4" height="11.4"/>
<rect x="554" y="148.1" transform="matrix(4.496143e-11 -1 1 4.496143e-11 405.8526 713.4527)" class="st1" width="11.4" height="11.4"/>
<rect x="417" y="127.3" transform="matrix(-1.836970e-16 1 -1 -1.836970e-16 554.7368 -283.8316)" class="st1" width="4.5" height="16.3"/>
<rect x="417" y="135" transform="matrix(-1.836970e-16 1 -1 -1.836970e-16 562.4759 -276.0925)" class="st1" width="4.5" height="16.3"/>
<rect x="387.7" y="195" transform="matrix(-1.836970e-16 1 -1 -1.836970e-16 593.158 -186.7999)" class="st1" width="4.5" height="16.3"/>
<rect x="456.6" y="185.2" transform="matrix(-1.836970e-16 1 -1 -1.836970e-16 646.379 -271.3895)" class="st1" width="4.5" height="4.5"/>
<rect x="451.2" y="194.1" transform="matrix(-1.836970e-16 1 -1 -1.836970e-16 649.8527 -257.179)" class="st1" width="4.5" height="4.5"/>
<rect x="456.6" y="203.2" transform="matrix(-1.836970e-16 1 -1 -1.836970e-16 664.3369 -253.4315)" class="st1" width="4.5" height="4.5"/>
<rect x="508.7" y="130" transform="matrix(-1.836970e-16 1 -1 -1.836970e-16 645.5544 -372.8466)" class="st1" width="1.1" height="12.7"/>
<rect x="508.7" y="132.7" transform="matrix(-1.836970e-16 1 -1 -1.836970e-16 648.4708 -369.9303)" class="st1" width="1.1" height="13.1"/>
<rect x="508.7" y="161.3" transform="matrix(-1.836970e-16 1 -1 -1.836970e-16 677.0291 -341.3719)" class="st1" width="1.1" height="13.1"/>
<rect x="524.4" y="180.7" transform="matrix(-1.836970e-16 1 -1 -1.836970e-16 709.6237 -343.729)" class="st1" width="4.5" height="4.5"/>
<rect x="470.9" y="154.6" transform="matrix(-1.836970e-16 1 -1 -1.836970e-16 629.3523 -316.0793)" class="st1" width="3.5" height="4.2"/>
<rect x="470.9" y="171.4" transform="matrix(-1.836970e-16 1 -1 -1.836970e-16 646.2074 -299.2242)" class="st1" width="3.5" height="4.2"/>
<rect x="857.7" y="133.9" transform="matrix(-1.836970e-16 1 -1 -1.836970e-16 1003.0381 -723.7829)" class="st1" width="11.4" height="11.4"/>
<rect x="635.1" y="183.2" transform="matrix(-1.836970e-16 1 -1 -1.836970e-16 824.821 -449.8316)" class="st1" width="4.5" height="8.6"/>
<rect x="624.4" y="183.2" transform="matrix(-1.836970e-16 1 -1 -1.836970e-16 814.1473 -439.1579)" class="st1" width="4.5" height="8.6"/>
<rect x="603.8" y="195.8" transform="matrix(-1.836970e-16 1 -1 -1.836970e-16 806.1684 -406.0421)" class="st1" width="4.5" height="8.6"/>
<rect x="718.7" y="217.6" transform="matrix(4.490281e-11 -1 1 4.490281e-11 501.1579 943.2211)" class="st1" width="6.9" height="6.9"/>
<rect x="690.3" y="150.1" transform="matrix(-1.836970e-16 1 -1 -1.836970e-16 843.3625 -540.2131)" class="st1" width="2.9" height="2.9"/>
<rect x="686.9" y="150.1" transform="matrix(-1.836970e-16 1 -1 -1.836970e-16 839.9233 -536.774)" class="st1" width="2.9" height="2.9"/>
<rect x="686.9" y="153.6" transform="matrix(-1.836970e-16 1 -1 -1.836970e-16 843.3544 -533.3589)" class="st1" width="2.9" height="2.9"/>
<rect x="690.3" y="153.6" transform="matrix(-1.836970e-16 1 -1 -1.836970e-16 846.7855 -536.79)" class="st1" width="2.9" height="2.9"/>
<rect x="660.8" y="157" transform="matrix(-1.836970e-16 1 -1 -1.836970e-16 821.6679 -503.7882)" class="st1" width="3.9" height="3.9"/>
<rect x="667.3" y="168.6" transform="matrix(-1.836970e-16 1 -1 -1.836970e-16 839.8171 -498.7374)" class="st1" width="3.9" height="3.9"/>
<rect x="667.3" y="200.1" transform="matrix(-1.836970e-16 1 -1 -1.836970e-16 871.2825 -467.272)" class="st1" width="3.9" height="3.9"/>
<rect x="660.8" y="188.9" transform="matrix(-1.836970e-16 1 -1 -1.836970e-16 853.6017 -471.8543)" class="st1" width="3.9" height="3.9"/>
<rect x="764.5" y="200.6" transform="matrix(6.123234e-17 -1 1 6.123234e-17 563.9593 972.3979)" class="st1" width="7.3" height="7.3"/>
<rect x="764.5" y="191.9" transform="matrix(6.123234e-17 -1 1 6.123234e-17 572.5993 963.7172)" class="st1" width="7.3" height="7.3"/>
<rect x="801.4" y="207.9" transform="matrix(6.123234e-17 -1 1 6.123234e-17 593.5148 1016.5905)" class="st1" width="7.3" height="7.3"/>
<rect x="1036.4" y="218.2" transform="matrix(6.123234e-17 -1 1 6.123234e-17 818.1221 1261.8982)" class="st1" width="7.3" height="7.3"/>
<rect x="1018.1" y="209.6" transform="matrix(6.123234e-17 -1 1 6.123234e-17 808.5726 1235.0281)" class="st1" width="7.3" height="7.3"/>
<rect x="1052.3" y="247.9" transform="matrix(6.123234e-17 -1 1 6.123234e-17 804.3537 1307.4983)" class="st1" width="7.3" height="7.3"/>
<rect x="1052.2" y="238.3" transform="matrix(6.123234e-17 -1 1 6.123234e-17 813.9937 1297.8175)" class="st1" width="7.3" height="7.3"/>
<rect x="963.4" y="187.8" class="st1" width="7.3" height="7.3"/>
<rect x="986.1" y="187.8" class="st1" width="7.3" height="7.3"/>
<rect x="963.4" y="214.6" class="st1" width="7.3" height="7.3"/>
<rect x="922" y="172.7" class="st1" width="7.3" height="7.3"/>
<rect x="902.7" y="188.2" class="st1" width="7.3" height="7.3"/>
<rect x="931.9" y="223.7" class="st1" width="7.3" height="7.3"/>
<rect x="1312.7" y="248.4" transform="matrix(-1 -1.224647e-16 1.224647e-16 -1 2647.8738 504.6948)" class="st1" width="22.5" height="7.9"/>
<rect x="1353.3" y="252.4" transform="matrix(-1.836970e-16 1 -1 -1.836970e-16 1609.6526 -1100.9158)" class="st1" width="3.9" height="3.9"/>
<rect x="1353.3" y="257.8" transform="matrix(-1.836970e-16 1 -1 -1.836970e-16 1615.0264 -1095.5421)" class="st1" width="3.9" height="3.9"/>
<rect x="1612.1" y="113.4" transform="matrix(-1.836970e-16 1 -1 -1.836970e-16 1730.5083 -1494.6923)" class="st1" width="1.1" height="9"/>
<rect x="1612.1" y="116.2" transform="matrix(-1.836970e-16 1 -1 -1.836970e-16 1733.4246 -1491.776)" class="st1" width="1.1" height="9.3"/>
<rect x="1612.1" y="144.7" transform="matrix(-1.836970e-16 1 -1 -1.836970e-16 1761.983 -1463.2175)" class="st1" width="1.1" height="9.3"/>
<rect x="1643" y="175.5" transform="matrix(-1.836970e-16 1 -1 -1.836970e-16 1823.7292 -1463.3655)" class="st1" width="1.1" height="9.3"/>
<rect x="1643" y="204.1" transform="matrix(-1.836970e-16 1 -1 -1.836970e-16 1852.2876 -1434.8071)" class="st1" width="1.1" height="9.3"/>
<rect x="2096.3" y="121.3" transform="matrix(-1.836970e-16 1 -1 -1.836970e-16 2228.9736 -1974.9316)" class="st1" width="11.4" height="11.4"/>
<rect x="2117.2" y="187.5" transform="matrix(-1.836970e-16 1 -1 -1.836970e-16 2316.0369 -1929.7421)" class="st1" width="11.4" height="11.4"/>
<rect x="2117.2" y="95.1" transform="matrix(-1.836970e-16 1 -1 -1.836970e-16 2223.7 -2022.0789)" class="st1" width="11.4" height="11.4"/>
<rect x="1424.5" y="229.8" transform="matrix(-1.836970e-16 1 -1 -1.836970e-16 1658.9263 -1194.6948)" class="st1" width="4.5" height="4.5"/>
<rect x="1419.2" y="238.7" transform="matrix(-1.836970e-16 1 -1 -1.836970e-16 1662.3999 -1180.4843)" class="st1" width="4.5" height="4.5"/>
<rect x="1424.5" y="247.8" transform="matrix(-1.836970e-16 1 -1 -1.836970e-16 1676.8843 -1176.7368)" class="st1" width="4.5" height="4.5"/>
<rect x="1399.7" y="219" transform="matrix(-1.836970e-16 1 -1 -1.836970e-16 1625.2842 -1180.7053)" class="st1" width="6.6" height="6.6"/>
<rect x="1370.3" y="227.8" transform="matrix(-1.836970e-16 1 -1 -1.836970e-16 1606.9579 -1138.179)" class="st1" width="4.5" height="13.1"/>
<rect x="1497.6" y="235" transform="matrix(6.123234e-17 -1 1 6.123234e-17 1262.5713 1736.4833)" class="st1" width="3.9" height="3.9"/>
<rect x="1491" y="223.4" transform="matrix(6.123234e-17 -1 1 6.123234e-17 1267.6221 1718.3341)" class="st1" width="3.9" height="3.9"/>
<rect x="1491" y="191.9" transform="matrix(6.123234e-17 -1 1 6.123234e-17 1299.0874 1686.8687)" class="st1" width="3.9" height="3.9"/>
<rect x="1513.6" y="167.8" transform="matrix(6.123234e-17 -1 1 6.123234e-17 1337.4283 1693.2559)" class="st1" width="3.4" height="20.1"/>
<rect x="2214.5" y="260.7" transform="matrix(-1.836970e-16 1 -1 -1.836970e-16 2479.1262 -1953.5052)" class="st1" width="3.5" height="4.2"/>
<rect x="2221" y="260.7" transform="matrix(-1.836970e-16 1 -1 -1.836970e-16 2485.5369 -1959.9158)" class="st1" width="3.5" height="4.2"/>
<rect x="2234.1" y="265.3" transform="matrix(-1.836970e-16 1 -1 -1.836970e-16 2503.2905 -1968.4358)" class="st1" width="3.5" height="4.2"/>
<rect x="2275.3" y="203.1" transform="matrix(-1 -1.224647e-16 1.224647e-16 -1 4551.6353 415.5684)" class="st1" width="1.1" height="9.3"/>
<rect x="2272.8" y="203.1" transform="matrix(-1 -1.224647e-16 1.224647e-16 -1 4546.709 415.5684)" class="st1" width="1.1" height="9.3"/>
<rect x="2287.5" y="216.2" transform="matrix(-1 -1.224647e-16 1.224647e-16 -1 4576.1753 441.6842)" class="st1" width="1.1" height="9.3"/>
<rect x="2304.1" y="243.7" transform="matrix(-1 -1.224647e-16 1.224647e-16 -1 4609.27 496.7579)" class="st1" width="1.1" height="9.3"/>
<rect x="2281.7" y="239.1" transform="matrix(-1 -1.224647e-16 1.224647e-16 -1 4564.5542 487.4532)" class="st1" width="1.1" height="9.3"/>
<rect x="2360.4" y="270.9" class="st1" width="7.3" height="5.6"/>
<rect x="2369.1" y="270.9" class="st1" width="7.3" height="5.6"/>
<rect x="1698.6" y="215.1" class="st1" width="7.3" height="7.3"/>
<rect x="1675.2" y="230.8" class="st1" width="7.3" height="7.3"/>
<rect x="1754.9" y="240.3" transform="matrix(4.478735e-11 -1 1 4.478735e-11 1514.5619 2003.8982)" class="st1" width="8.7" height="8.7"/>
<rect x="1731.9" y="208.2" transform="matrix(4.478735e-11 -1 1 4.478735e-11 1523.6875 1948.7999)" class="st1" width="8.7" height="8.7"/>
<rect x="1793.9" y="199.1" transform="matrix(6.123234e-17 -1 1 6.123234e-17 1592.7263 1999.6106)" class="st1" width="4.5" height="8.6"/>
<rect x="1804.6" y="173.1" transform="matrix(6.123234e-17 -1 1 6.123234e-17 1629.4779 1984.2064)" class="st1" width="4.5" height="8.6"/>
<rect x="1822.1" y="186.6" transform="matrix(6.123234e-17 -1 1 6.123234e-17 1633.5157 2015.2632)" class="st1" width="4.5" height="8.6"/>
<rect x="1881.3" y="225" transform="matrix(-1.836970e-16 1 -1 -1.836970e-16 2112.0979 -1656.3256)" class="st1" width="5.8" height="5.8"/>
<rect x="1847.2" y="203.4" transform="matrix(-1.836970e-16 1 -1 -1.836970e-16 2056.4929 -1643.7944)" class="st1" width="5.8" height="5.8"/>
<rect x="1836.3" y="247.9" transform="matrix(-1.836970e-16 1 -1 -1.836970e-16 2089.979 -1588.4249)" class="st1" width="5.8" height="5.8"/>
<rect x="1854.1" y="231.5" transform="matrix(-1.836970e-16 1 -1 -1.836970e-16 2091.509 -1622.6036)" class="st1" width="5.8" height="5.8"/>
<rect x="1904.7" y="169.9" transform="matrix(6.123234e-17 -1 1 6.123234e-17 1734.7314 2083.6941)" class="st1" width="9.1" height="9.1"/>
<rect x="1927.2" y="244.5" transform="matrix(6.123234e-17 -1 1 6.123234e-17 1682.7157 2180.7434)" class="st1" width="9.1" height="9.1"/>
<rect x="1927.1" y="159.1" transform="matrix(6.123234e-17 -1 1 6.123234e-17 1768.0123 2095.396)" class="st1" width="9.1" height="9.1"/>
<rect x="2406.2" y="251.5" transform="matrix(-1.836970e-16 1 -1 -1.836970e-16 2661.6035 -2154.6299)" class="st1" width="3.9" height="3.9"/>
<rect x="2393.9" y="245" transform="matrix(-1.836970e-16 1 -1 -1.836970e-16 2642.7859 -2148.9807)" class="st1" width="3.9" height="3.9"/>
<rect x="2428.9" y="234.9" transform="matrix(-1.836970e-16 1 -1 -1.836970e-16 2667.7473 -2193.979)" class="st1" width="3.9" height="3.9"/>
<rect x="1976.5" y="224.6" transform="matrix(6.123234e-17 -1 1 6.123234e-17 1749.8684 2207.6895)" class="st1" width="4.5" height="8.6"/>
<rect x="1976.5" y="231.8" transform="matrix(6.123234e-17 -1 1 6.123234e-17 1742.6685 2214.8894)" class="st1" width="4.5" height="8.6"/>
<rect x="2006.6" y="252.7" transform="matrix(6.123234e-17 -1 1 6.123234e-17 1751.9515 2265.8884)" class="st1" width="4.5" height="8.6"/>
<rect x="2034.1" y="229.8" transform="matrix(6.123234e-17 -1 1 6.123234e-17 1800.8527 2269.7578)" class="st1" width="2.4" height="9.3"/>
<rect x="2048.1" y="213.9" transform="matrix(6.123234e-17 -1 1 6.123234e-17 1830.7117 2267.7925)" class="st1" width="2.4" height="9.3"/>
<rect x="2063.6" y="206.9" transform="matrix(6.123234e-17 -1 1 6.123234e-17 1853.1947 2276.342)" class="st1" width="2.4" height="9.3"/>
<rect x="2063.6" y="242" transform="matrix(6.123234e-17 -1 1 6.123234e-17 1818.1421 2311.3948)" class="st1" width="2.4" height="9.3"/>
<rect x="2453.3" y="174.8" transform="matrix(6.123234e-17 -1 1 6.123234e-17 2278.564 2637.4783)" class="st1" width="9.4" height="9.4"/>
<rect x="2465.5" y="201" transform="matrix(6.123234e-17 -1 1 6.123234e-17 2264.4199 2675.8748)" class="st1" width="9.4" height="9.4"/>
<rect x="2453.3" y="244.2" transform="matrix(6.123234e-17 -1 1 6.123234e-17 2209.1763 2706.8657)" class="st1" width="9.4" height="9.4"/>
<rect x="2180.9" y="206.1" transform="matrix(-1.836970e-16 1 -1 -1.836970e-16 2393.5122 -1972.7404)" class="st1" width="4.5" height="8.6"/>
<rect x="2154.6" y="213.1" transform="matrix(-1.836970e-16 1 -1 -1.836970e-16 2374.2683 -1939.5631)" class="st1" width="4.5" height="8.6"/>
<rect x="2180.9" y="242.3" transform="matrix(-1.836970e-16 1 -1 -1.836970e-16 2429.7527 -1936.5)" class="st1" width="4.5" height="8.6"/>
<rect x="2170.2" y="242.3" transform="matrix(-1.836970e-16 1 -1 -1.836970e-16 2419.0789 -1925.8263)" class="st1" width="4.5" height="8.6"/>
<rect x="1424.6" y="185.5" transform="matrix(6.123234e-17 -1 1 6.123234e-17 1239.0647 1617.3683)" class="st1" width="7.3" height="7.3"/>
<rect x="1424.5" y="176.8" transform="matrix(6.123234e-17 -1 1 6.123234e-17 1247.7047 1608.6876)" class="st1" width="7.3" height="7.3"/>
<rect x="1464.4" y="198.5" transform="matrix(6.123234e-17 -1 1 6.123234e-17 1265.9369 1670.2316)" class="st1" width="7.3" height="7.3"/>
<rect x="1451.3" y="220" transform="matrix(6.123234e-17 -1 1 6.123234e-17 1231.3086 1678.5862)" class="st1" width="7.3" height="7.3"/>
</svg>
