<svg id="svg" version="1.1" xmlns="http://www.w3.org/2000/svg" xmlns:xlink="http://www.w3.org/1999/xlink" width="400" height="47.87775891341256" viewBox="0, 0, 400,47.87775891341256"><g id="svgg"><path id="path0" d="M58.021 0.746 L 57.333 1.493 57.333 3.163 L 57.333 4.833 56.333 4.833 C 55.378 4.833,55.333 4.852,55.333 5.250 C 55.333 5.613,55.260 5.667,54.768 5.667 C 53.957 5.667,54.000 4.735,54.000 22.347 L 54.000 38.500 51.667 38.500 L 49.333 38.500 49.333 34.500 C 49.333 30.611,49.324 30.500,49.000 30.500 C 48.672 30.500,48.667 30.389,48.667 23.417 C 48.667 19.521,48.610 16.342,48.542 16.353 C 48.006 16.438,47.667 16.301,47.667 16.000 C 47.667 15.700,47.556 15.667,46.571 15.667 L 45.476 15.667 45.529 14.251 C 45.588 12.721,45.558 12.667,44.653 12.667 C 44.191 12.667,44.167 12.631,44.167 11.946 C 44.167 10.710,43.385 10.205,42.493 10.865 C 42.045 11.196,42.000 11.318,42.000 12.198 C 42.000 13.163,41.998 13.167,41.500 13.167 L 41.000 13.167 41.000 14.417 L 41.000 15.667 40.250 15.667 L 39.500 15.667 39.500 27.667 C 39.500 38.504,39.474 39.667,39.236 39.667 C 39.000 39.667,38.978 39.176,39.028 35.076 L 39.083 30.485 38.708 30.391 C 38.390 30.311,38.333 30.186,38.333 29.559 L 38.333 28.821 36.792 28.869 L 35.250 28.917 35.199 29.625 C 35.117 30.760,34.167 30.714,34.167 29.575 C 34.167 28.290,33.627 27.579,32.799 27.772 C 32.589 27.821,31.913 27.854,31.298 27.845 C 29.979 27.827,29.850 27.963,29.709 29.522 C 29.648 30.193,29.549 30.500,29.394 30.500 C 29.132 30.500,29.084 31.096,29.333 31.250 C 29.440 31.316,29.500 33.557,29.500 37.427 L 29.500 43.500 29.083 43.500 L 28.667 43.500 28.667 37.417 C 28.667 33.472,28.725 31.333,28.833 31.333 C 28.925 31.333,29.000 31.146,29.000 30.917 C 29.000 30.583,28.917 30.500,28.583 30.500 C 28.202 30.500,28.167 30.438,28.167 29.764 C 28.167 28.554,28.109 28.500,26.829 28.500 C 25.276 28.500,25.167 28.560,25.167 29.417 C 25.167 30.121,25.157 30.133,24.542 30.192 L 23.917 30.252 23.972 29.411 C 24.042 28.335,23.651 27.778,22.827 27.778 C 22.520 27.778,22.241 27.860,22.207 27.961 C 22.165 28.089,21.939 28.072,21.462 27.903 C 20.773 27.660,20.167 27.715,20.167 28.021 C 20.167 28.112,20.092 28.140,20.000 28.083 C 19.802 27.961,19.782 28.112,19.829 29.375 C 19.857 30.155,19.815 30.333,19.599 30.333 C 19.363 30.333,19.333 30.793,19.333 34.417 C 19.333 37.935,19.299 38.500,19.083 38.500 C 18.863 38.500,18.833 37.054,18.833 26.490 C 18.833 18.358,18.888 14.514,19.004 14.586 C 19.108 14.650,19.159 14.493,19.135 14.179 C 19.099 13.704,19.050 13.667,18.465 13.667 L 17.833 13.667 17.833 12.250 L 17.833 10.833 15.667 10.833 L 13.500 10.833 13.500 12.167 L 13.500 13.500 11.500 13.500 L 9.500 13.500 9.500 26.000 L 9.500 38.500 8.667 38.500 L 7.833 38.500 7.833 32.333 C 7.833 28.333,7.892 26.167,8.000 26.167 C 8.092 26.167,8.167 25.979,8.167 25.750 C 8.167 25.400,8.088 25.333,7.675 25.333 C 7.193 25.333,7.182 25.314,7.133 24.375 L 7.083 23.417 5.426 23.417 L 3.769 23.417 3.813 24.375 L 3.858 25.333 3.262 25.333 C 2.738 25.333,2.667 25.283,2.667 24.917 C 2.667 24.688,2.760 24.500,2.875 24.500 C 3.238 24.500,3.098 22.289,2.721 22.083 C 2.554 21.992,2.370 21.852,2.312 21.774 C 2.174 21.583,1.627 21.769,1.097 22.186 C 0.579 22.593,0.430 24.500,0.917 24.500 C 1.072 24.500,1.167 24.657,1.167 24.917 C 1.167 25.282,1.094 25.333,0.583 25.333 L 0.000 25.333 0.000 36.583 L 0.000 47.833 90.583 47.833 L 181.167 47.833 181.167 39.347 C 181.167 30.479,181.158 30.333,180.649 30.333 C 180.386 30.333,180.333 30.208,180.333 29.583 L 180.333 28.833 178.957 28.833 L 177.581 28.833 177.641 29.583 C 177.697 30.295,177.678 30.333,177.267 30.333 C 176.942 30.333,176.833 30.248,176.833 29.995 C 176.833 29.809,176.721 29.613,176.583 29.560 C 176.440 29.505,176.333 29.256,176.333 28.977 C 176.333 28.627,176.227 28.447,175.958 28.339 C 175.752 28.256,175.656 28.183,175.745 28.177 C 175.835 28.171,175.738 28.048,175.532 27.903 C 175.184 27.660,175.112 27.666,174.578 27.981 C 174.260 28.169,174.000 28.245,174.000 28.151 C 174.000 28.057,173.925 28.027,173.833 28.083 C 173.742 28.140,173.667 28.107,173.667 28.010 C 173.667 27.784,172.909 27.781,172.489 28.006 C 172.218 28.151,172.167 28.362,172.167 29.339 C 172.167 30.260,172.115 30.500,171.917 30.500 C 171.701 30.500,171.667 31.054,171.667 34.490 C 171.667 38.777,171.380 40.369,171.297 36.548 C 171.252 34.486,171.238 34.415,170.878 34.364 L 170.505 34.311 170.461 29.864 L 170.417 25.417 170.042 25.363 C 169.705 25.316,169.667 25.217,169.667 24.405 L 169.667 23.500 167.833 23.500 L 166.000 23.500 166.000 24.500 L 166.000 25.500 164.167 25.500 L 162.333 25.500 162.333 32.417 L 162.333 39.333 161.667 39.333 L 161.000 39.333 161.000 36.750 C 161.000 34.578,160.961 34.167,160.753 34.167 C 160.542 34.167,160.499 33.528,160.461 29.792 L 160.417 25.417 159.875 25.364 C 159.337 25.313,159.333 25.307,159.333 24.406 C 159.333 23.510,159.328 23.500,158.833 23.500 C 158.358 23.500,158.333 23.466,158.333 22.806 C 158.333 22.424,158.287 22.158,158.230 22.214 C 158.173 22.271,158.010 22.201,157.868 22.058 C 157.304 21.495,156.000 22.042,156.000 22.843 C 156.000 23.251,155.929 23.319,155.458 23.364 C 154.923 23.416,154.916 23.428,154.867 24.375 L 154.817 25.333 153.742 25.333 C 152.897 25.333,152.667 25.387,152.667 25.583 C 152.667 25.739,152.509 25.833,152.250 25.833 L 151.833 25.833 151.833 28.083 C 151.833 29.972,151.793 30.333,151.583 30.333 C 151.364 30.333,151.333 28.946,151.333 18.844 L 151.333 7.354 150.750 7.449 C 150.187 7.540,150.167 7.525,150.167 7.022 L 150.167 6.500 148.841 6.500 L 147.515 6.500 147.466 5.292 L 147.417 4.083 146.625 4.033 L 145.833 3.982 145.833 3.199 C 145.832 2.186,144.703 1.543,143.830 2.059 C 143.574 2.210,143.246 2.333,143.099 2.333 C 142.915 2.333,142.833 2.487,142.833 2.833 C 142.833 3.294,142.787 3.333,142.250 3.333 L 141.667 3.333 141.667 5.000 L 141.667 6.667 141.000 6.667 L 140.333 6.667 140.333 13.750 L 140.333 20.833 138.917 20.833 L 137.500 20.833 137.500 22.000 L 137.500 23.167 136.583 23.167 L 135.667 23.167 135.667 21.759 L 135.667 20.351 135.167 20.525 C 134.892 20.621,134.667 20.767,134.667 20.850 C 134.667 20.932,134.568 21.000,134.446 21.000 C 134.325 21.000,133.931 21.223,133.571 21.495 C 133.211 21.768,132.828 21.993,132.720 21.995 C 132.612 21.998,132.422 22.094,132.298 22.208 C 131.776 22.690,130.328 23.333,129.767 23.333 L 129.167 23.333 129.167 27.417 L 129.167 31.500 127.750 31.500 C 126.444 31.500,126.333 31.526,126.333 31.833 C 126.333 32.137,125.801 32.293,125.125 32.186 C 125.056 32.176,125.000 32.579,125.000 33.083 C 125.000 33.889,124.960 34.000,124.667 34.000 C 124.378 34.000,124.333 33.889,124.333 33.167 L 124.333 32.333 122.667 32.333 L 121.000 32.333 121.000 35.417 C 121.000 38.046,120.963 38.500,120.750 38.500 C 120.535 38.500,120.500 37.944,120.500 34.500 C 120.500 31.056,120.465 30.500,120.250 30.500 C 120.039 30.500,120.000 30.111,120.000 28.000 C 120.000 25.649,119.981 25.500,119.681 25.500 C 119.389 25.500,119.357 25.341,119.306 23.613 C 119.265 22.229,119.183 21.652,119.000 21.452 C 118.862 21.301,118.656 21.066,118.542 20.929 C 118.416 20.779,118.333 20.187,118.333 19.429 C 118.333 17.859,117.970 17.527,116.719 17.953 L 116.000 18.198 116.000 19.506 C 116.000 20.225,115.925 20.860,115.833 20.917 C 115.733 20.979,115.667 20.752,115.667 20.343 L 115.667 19.667 113.667 19.667 L 111.667 19.667 111.667 20.755 C 111.667 21.569,111.604 21.868,111.417 21.940 C 111.204 22.021,111.167 22.650,111.167 26.184 C 111.167 29.761,111.132 30.333,110.917 30.333 C 110.709 30.333,110.667 30.657,110.667 32.250 C 110.667 33.417,110.601 34.167,110.500 34.167 C 110.399 34.167,110.333 33.417,110.333 32.250 C 110.333 30.673,110.290 30.333,110.088 30.333 C 109.885 30.333,109.834 29.908,109.796 27.875 L 109.750 25.417 109.292 25.364 C 108.861 25.314,108.833 25.262,108.833 24.489 L 108.833 23.667 106.917 23.667 L 105.000 23.667 105.000 24.500 L 105.000 25.333 103.250 25.333 L 101.500 25.333 101.500 26.563 C 101.500 27.453,101.431 27.850,101.250 28.000 C 101.076 28.145,101.000 28.529,101.000 29.270 L 101.000 30.333 100.167 30.333 L 99.333 30.333 99.333 21.583 C 99.333 16.771,99.277 12.842,99.208 12.853 C 98.546 12.958,98.500 12.862,98.500 11.375 L 98.500 9.917 96.667 9.917 L 94.833 9.917 94.833 11.375 L 94.833 12.833 93.083 12.833 L 91.333 12.833 91.333 21.750 L 91.333 30.667 90.833 30.667 L 90.333 30.667 90.333 24.583 C 90.333 20.639,90.392 18.500,90.500 18.500 C 90.592 18.500,90.667 18.237,90.667 17.917 C 90.667 17.347,90.651 17.333,90.000 17.333 L 89.333 17.333 89.333 16.000 L 89.333 14.667 88.667 14.667 L 88.000 14.667 88.000 13.865 C 88.000 12.687,86.986 12.218,85.668 12.789 C 85.022 13.069,85.000 13.105,85.000 13.873 L 85.000 14.667 84.167 14.667 L 83.333 14.667 83.333 16.083 L 83.333 17.500 81.917 17.500 C 80.559 17.500,80.500 17.516,80.500 17.875 C 80.500 18.206,80.421 18.247,79.833 18.225 L 79.167 18.201 79.167 25.184 C 79.167 31.236,79.134 32.167,78.920 32.167 C 78.712 32.167,78.667 31.639,78.628 28.792 L 78.583 25.417 77.958 25.365 C 77.311 25.311,76.959 24.500,77.583 24.500 C 77.782 24.500,77.833 24.260,77.833 23.338 C 77.833 21.843,77.291 21.394,76.146 21.942 L 75.504 22.250 75.502 23.375 C 75.500 24.265,75.552 24.500,75.750 24.500 C 75.906 24.500,76.000 24.657,76.000 24.917 C 76.000 25.250,75.917 25.333,75.583 25.333 C 75.182 25.333,75.167 25.294,75.167 24.250 L 75.167 23.167 74.500 23.167 L 73.833 23.167 73.833 18.250 L 73.833 13.333 71.917 13.333 L 70.000 13.333 70.000 11.750 L 70.000 10.167 68.083 10.167 L 66.167 10.167 66.167 11.731 C 66.167 13.154,66.137 13.302,65.833 13.382 C 65.540 13.458,65.500 13.609,65.500 14.651 L 65.500 15.833 64.337 15.833 C 62.973 15.833,62.932 15.893,63.027 17.737 C 63.058 18.341,63.027 18.834,62.958 18.834 C 62.890 18.833,62.833 15.683,62.833 11.833 L 62.833 4.833 61.667 4.833 L 60.500 4.833 60.500 3.064 L 60.500 1.295 59.792 0.654 C 58.896 -0.156,58.850 -0.153,58.021 0.746 M275.333 6.667 L 275.333 8.667 274.375 8.686 C 273.848 8.697,273.360 8.697,273.292 8.686 C 273.223 8.676,273.167 8.967,273.167 9.333 C 273.167 9.984,273.153 10.000,272.583 10.000 C 272.262 10.000,272.009 10.056,272.020 10.125 C 272.031 10.194,272.031 17.544,272.020 26.458 L 272.000 42.667 271.583 42.667 L 271.167 42.667 271.167 44.417 L 271.167 46.167 265.750 46.167 L 260.333 46.167 260.333 36.083 C 260.333 26.111,260.330 26.000,260.000 26.000 C 259.698 26.000,259.667 25.889,259.667 24.833 L 259.667 23.667 257.333 23.667 L 255.000 23.667 255.000 25.083 L 255.000 26.500 253.625 26.520 C 252.869 26.531,252.194 26.531,252.125 26.520 C 252.056 26.509,252.000 30.031,252.000 34.347 C 252.000 40.551,251.956 42.180,251.792 42.125 C 251.628 42.070,251.583 39.985,251.583 32.444 L 251.583 22.833 250.966 22.833 L 250.349 22.833 250.299 21.740 L 250.250 20.646 247.875 20.615 L 245.500 20.583 245.500 21.625 C 245.500 22.622,245.482 22.667,245.088 22.667 L 244.677 22.667 244.630 20.542 C 244.585 18.477,244.573 18.415,244.206 18.363 C 243.998 18.334,243.871 18.240,243.924 18.155 C 243.977 18.070,243.940 17.991,243.843 17.979 C 243.746 17.968,243.573 17.945,243.458 17.928 C 242.648 17.811,242.343 18.659,242.338 21.042 L 242.333 23.333 241.583 23.333 L 240.833 23.333 240.833 29.000 L 240.833 34.667 240.250 34.667 L 239.667 34.667 239.667 33.750 L 239.667 32.833 238.250 32.833 L 236.833 32.833 236.833 33.833 L 236.833 34.833 233.750 34.833 L 230.667 34.833 230.667 36.667 L 230.667 38.500 230.083 38.500 L 229.500 38.500 229.500 37.687 C 229.500 36.550,229.360 36.480,227.226 36.536 L 225.417 36.583 225.367 37.708 L 225.318 38.833 223.492 38.833 L 221.667 38.833 221.667 42.267 L 221.667 45.700 220.167 45.642 L 218.666 45.583 218.667 46.734 L 218.667 47.884 295.292 47.777 C 337.435 47.717,378.235 47.669,385.958 47.668 L 400.000 47.667 400.000 45.917 L 400.000 44.167 397.167 44.167 L 394.333 44.167 394.333 42.833 L 394.333 41.500 393.335 41.500 L 392.337 41.500 392.293 34.292 L 392.250 27.083 389.940 27.055 L 387.630 27.027 386.398 28.231 L 385.167 29.435 385.167 38.051 L 385.167 46.667 384.583 46.667 L 384.000 46.667 384.000 45.083 L 384.000 43.500 382.167 43.500 L 380.333 43.500 380.333 43.000 L 380.333 42.500 377.833 42.500 L 375.333 42.500 375.333 43.653 L 375.333 44.807 374.125 44.862 L 372.917 44.917 372.962 37.375 L 373.007 29.833 368.503 29.833 L 364.000 29.833 364.000 37.833 C 364.000 44.833,363.969 45.833,363.750 45.833 C 363.529 45.833,363.500 43.750,363.500 28.083 L 363.500 10.333 363.000 10.333 L 362.500 10.333 362.500 7.583 L 362.500 4.833 360.417 4.833 L 358.333 4.833 358.333 7.667 L 358.333 10.500 356.583 10.500 L 354.833 10.500 354.833 28.167 L 354.833 45.833 353.500 45.833 L 352.167 45.833 352.167 37.833 L 352.167 29.833 348.125 29.833 L 344.083 29.833 344.128 37.833 L 344.173 45.833 343.420 45.833 L 342.667 45.833 342.667 40.292 L 342.667 34.750 341.000 34.803 L 339.333 34.855 339.314 33.303 C 339.303 32.449,339.303 31.694,339.314 31.625 C 339.324 31.556,338.583 31.500,337.667 31.500 L 336.000 31.500 336.000 33.000 L 336.000 34.500 335.167 34.500 L 334.333 34.500 334.333 36.583 L 334.333 38.667 333.583 38.667 L 332.833 38.667 332.833 41.667 L 332.833 44.667 331.584 44.667 L 330.335 44.667 330.293 31.458 L 330.250 18.250 326.042 18.205 L 321.833 18.161 321.833 27.330 C 321.833 35.370,321.803 36.500,321.583 36.500 C 321.369 36.500,321.333 35.995,321.334 32.958 L 321.334 29.417 319.417 29.473 L 317.500 29.529 317.500 27.915 C 317.500 26.442,317.471 26.295,317.167 26.215 C 316.983 26.167,316.833 26.070,316.833 25.998 C 316.833 25.927,316.716 25.824,316.573 25.769 C 316.278 25.656,315.333 26.089,315.333 26.338 C 315.333 26.427,315.221 26.500,315.083 26.500 C 314.878 26.500,314.833 26.796,314.833 28.167 L 314.833 29.833 313.917 29.833 L 313.000 29.833 313.000 32.333 L 313.000 34.833 312.250 34.833 L 311.500 34.833 311.500 28.667 C 311.500 22.611,311.494 22.500,311.167 22.500 C 310.857 22.500,310.833 22.389,310.833 20.917 L 310.833 19.333 308.417 19.333 L 306.000 19.333 306.000 21.000 L 306.000 22.667 304.750 22.667 L 303.500 22.667 303.500 34.458 L 303.501 46.250 302.500 46.194 L 301.500 46.137 301.500 37.902 L 301.500 29.667 300.841 29.667 L 300.182 29.667 300.133 28.542 L 300.083 27.417 297.917 27.417 L 295.750 27.417 295.701 28.708 L 295.653 30.000 294.243 30.000 L 292.833 30.000 292.833 37.500 L 292.833 45.000 291.667 45.000 L 290.500 45.000 290.500 38.250 L 290.500 31.500 288.083 31.500 L 285.667 31.500 285.667 32.000 L 285.667 32.500 284.333 32.500 L 283.000 32.500 283.000 33.500 L 283.000 34.500 281.917 34.500 L 280.833 34.500 280.833 21.500 L 280.833 8.500 280.250 8.500 L 279.667 8.500 279.667 6.842 L 279.667 5.185 278.875 5.134 C 278.351 5.100,278.097 5.013,278.125 4.875 C 278.156 4.721,277.794 4.667,276.750 4.667 L 275.333 4.667 275.333 6.667 M27.292 28.788 C 26.948 28.824,26.385 28.824,26.042 28.788 C 25.698 28.752,25.979 28.723,26.667 28.723 C 27.354 28.723,27.635 28.752,27.292 28.788 " stroke="none" fill="#bcbcbc" fill-rule="evenodd"></path><path id="path1" d="M95.875 9.956 C 96.310 9.990,97.023 9.990,97.458 9.956 C 97.894 9.922,97.537 9.893,96.667 9.893 C 95.796 9.893,95.440 9.922,95.875 9.956 M45.558 14.333 C 45.558 15.112,45.587 15.431,45.622 15.042 C 45.657 14.652,45.657 14.015,45.622 13.625 C 45.587 13.235,45.558 13.554,45.558 14.333 M246.708 20.624 C 247.327 20.656,248.340 20.656,248.958 20.624 C 249.577 20.592,249.071 20.565,247.833 20.565 C 246.596 20.565,246.090 20.592,246.708 20.624 M3.050 23.333 C 3.050 23.837,3.081 24.044,3.119 23.792 C 3.158 23.540,3.158 23.127,3.119 22.875 C 3.081 22.623,3.050 22.829,3.050 23.333 M303.412 34.667 C 303.412 41.129,303.433 43.773,303.458 40.542 C 303.484 37.310,303.484 32.023,303.458 28.792 C 303.433 25.560,303.412 28.204,303.412 34.667 M251.581 32.569 C 251.583 40.859,251.615 42.064,251.833 42.124 C 252.017 42.174,252.028 42.153,251.876 42.045 C 251.717 41.932,251.659 39.751,251.624 32.491 L 251.579 23.083 251.581 32.569 M3.717 24.500 C 3.717 25.004,3.748 25.210,3.786 24.958 C 3.824 24.706,3.824 24.294,3.786 24.042 C 3.748 23.790,3.717 23.996,3.717 24.500 M300.220 28.667 C 300.220 29.262,300.250 29.506,300.287 29.208 C 300.324 28.910,300.324 28.423,300.287 28.125 C 300.250 27.827,300.220 28.071,300.220 28.667 M172.055 29.417 C 172.055 30.058,172.086 30.300,172.122 29.955 C 172.158 29.609,172.157 29.084,172.120 28.788 C 172.083 28.492,172.054 28.775,172.055 29.417 M19.717 29.500 C 19.717 30.004,19.748 30.210,19.786 29.958 C 19.824 29.706,19.824 29.294,19.786 29.042 C 19.748 28.790,19.717 28.996,19.717 29.500 M26.042 28.788 C 26.385 28.824,26.948 28.824,27.292 28.788 C 27.635 28.752,27.354 28.723,26.667 28.723 C 25.979 28.723,25.698 28.752,26.042 28.788 M177.545 29.667 C 177.545 30.079,177.578 30.248,177.618 30.042 C 177.657 29.835,177.657 29.498,177.618 29.292 C 177.578 29.085,177.545 29.254,177.545 29.667 M318.381 29.457 C 318.912 29.490,319.737 29.490,320.214 29.456 C 320.692 29.422,320.258 29.395,319.250 29.396 C 318.242 29.396,317.851 29.424,318.381 29.457 M344.077 37.917 C 344.077 42.317,344.099 44.093,344.125 41.863 C 344.151 39.634,344.151 36.034,344.125 33.863 C 344.099 31.693,344.077 33.517,344.077 37.917 M171.500 34.534 C 171.454 36.798,171.474 38.593,171.545 38.522 C 171.615 38.452,171.653 36.599,171.628 34.405 L 171.583 30.417 171.500 34.534 M335.893 33.000 C 335.893 33.871,335.922 34.227,335.956 33.792 C 335.990 33.356,335.990 32.644,335.956 32.208 C 335.922 31.773,335.893 32.129,335.893 33.000 M311.877 34.786 C 312.131 34.825,312.506 34.824,312.711 34.784 C 312.916 34.744,312.708 34.713,312.250 34.714 C 311.792 34.716,311.624 34.748,311.877 34.786 M340.131 34.790 C 340.615 34.824,341.365 34.823,341.797 34.789 C 342.230 34.755,341.833 34.727,340.917 34.728 C 340.000 34.728,339.646 34.756,340.131 34.790 M161.292 39.284 C 161.498 39.324,161.835 39.324,162.042 39.284 C 162.248 39.245,162.079 39.212,161.667 39.212 C 161.254 39.212,161.085 39.245,161.292 39.284 M219.625 45.622 C 220.015 45.657,220.652 45.657,221.042 45.622 C 221.431 45.587,221.112 45.558,220.333 45.558 C 219.554 45.558,219.235 45.587,219.625 45.622 M312.635 47.791 C 314.039 47.819,316.289 47.819,317.635 47.791 C 318.982 47.763,317.833 47.740,315.083 47.741 C 312.333 47.741,311.232 47.763,312.635 47.791 M332.802 47.791 C 334.206 47.819,336.456 47.819,337.802 47.791 C 339.148 47.763,338.000 47.740,335.250 47.741 C 332.500 47.741,331.398 47.763,332.802 47.791 " stroke="none" fill="#c0bcbc" fill-rule="evenodd"></path><path id="path2" d="M95.875 9.956 C 96.310 9.990,97.023 9.990,97.458 9.956 C 97.894 9.922,97.537 9.893,96.667 9.893 C 95.796 9.893,95.440 9.922,95.875 9.956 M45.558 14.333 C 45.558 15.112,45.587 15.431,45.622 15.042 C 45.657 14.652,45.657 14.015,45.622 13.625 C 45.587 13.235,45.558 13.554,45.558 14.333 M246.708 20.624 C 247.327 20.656,248.340 20.656,248.958 20.624 C 249.577 20.592,249.071 20.565,247.833 20.565 C 246.596 20.565,246.090 20.592,246.708 20.624 M3.050 23.333 C 3.050 23.837,3.081 24.044,3.119 23.792 C 3.158 23.540,3.158 23.127,3.119 22.875 C 3.081 22.623,3.050 22.829,3.050 23.333 M303.412 34.667 C 303.412 41.129,303.433 43.773,303.458 40.542 C 303.484 37.310,303.484 32.023,303.458 28.792 C 303.433 25.560,303.412 28.204,303.412 34.667 M251.581 32.569 C 251.583 40.859,251.615 42.064,251.833 42.124 C 252.017 42.174,252.028 42.153,251.876 42.045 C 251.717 41.932,251.659 39.751,251.624 32.491 L 251.579 23.083 251.581 32.569 M3.717 24.500 C 3.717 25.004,3.748 25.210,3.786 24.958 C 3.824 24.706,3.824 24.294,3.786 24.042 C 3.748 23.790,3.717 23.996,3.717 24.500 M300.220 28.667 C 300.220 29.262,300.250 29.506,300.287 29.208 C 300.324 28.910,300.324 28.423,300.287 28.125 C 300.250 27.827,300.220 28.071,300.220 28.667 M172.055 29.417 C 172.055 30.058,172.086 30.300,172.122 29.955 C 172.158 29.609,172.157 29.084,172.120 28.788 C 172.083 28.492,172.054 28.775,172.055 29.417 M19.717 29.500 C 19.717 30.004,19.748 30.210,19.786 29.958 C 19.824 29.706,19.824 29.294,19.786 29.042 C 19.748 28.790,19.717 28.996,19.717 29.500 M26.042 28.788 C 26.385 28.824,26.948 28.824,27.292 28.788 C 27.635 28.752,27.354 28.723,26.667 28.723 C 25.979 28.723,25.698 28.752,26.042 28.788 M177.545 29.667 C 177.545 30.079,177.578 30.248,177.618 30.042 C 177.657 29.835,177.657 29.498,177.618 29.292 C 177.578 29.085,177.545 29.254,177.545 29.667 M318.381 29.457 C 318.912 29.490,319.737 29.490,320.214 29.456 C 320.692 29.422,320.258 29.395,319.250 29.396 C 318.242 29.396,317.851 29.424,318.381 29.457 M344.077 37.917 C 344.077 42.317,344.099 44.093,344.125 41.863 C 344.151 39.634,344.151 36.034,344.125 33.863 C 344.099 31.693,344.077 33.517,344.077 37.917 M171.500 34.534 C 171.454 36.798,171.474 38.593,171.545 38.522 C 171.615 38.452,171.653 36.599,171.628 34.405 L 171.583 30.417 171.500 34.534 M335.893 33.000 C 335.893 33.871,335.922 34.227,335.956 33.792 C 335.990 33.356,335.990 32.644,335.956 32.208 C 335.922 31.773,335.893 32.129,335.893 33.000 M311.877 34.786 C 312.131 34.825,312.506 34.824,312.711 34.784 C 312.916 34.744,312.708 34.713,312.250 34.714 C 311.792 34.716,311.624 34.748,311.877 34.786 M340.131 34.790 C 340.615 34.824,341.365 34.823,341.797 34.789 C 342.230 34.755,341.833 34.727,340.917 34.728 C 340.000 34.728,339.646 34.756,340.131 34.790 M161.292 39.284 C 161.498 39.324,161.835 39.324,162.042 39.284 C 162.248 39.245,162.079 39.212,161.667 39.212 C 161.254 39.212,161.085 39.245,161.292 39.284 M219.625 45.622 C 220.015 45.657,220.652 45.657,221.042 45.622 C 221.431 45.587,221.112 45.558,220.333 45.558 C 219.554 45.558,219.235 45.587,219.625 45.622 M312.635 47.791 C 314.039 47.819,316.289 47.819,317.635 47.791 C 318.982 47.763,317.833 47.740,315.083 47.741 C 312.333 47.741,311.232 47.763,312.635 47.791 M332.802 47.791 C 334.206 47.819,336.456 47.819,337.802 47.791 C 339.148 47.763,338.000 47.740,335.250 47.741 C 332.500 47.741,331.398 47.763,332.802 47.791 " stroke="none" fill="#c0bcbc" fill-rule="evenodd"></path><path id="path3" d="M95.875 9.956 C 96.310 9.990,97.023 9.990,97.458 9.956 C 97.894 9.922,97.537 9.893,96.667 9.893 C 95.796 9.893,95.440 9.922,95.875 9.956 M45.558 14.333 C 45.558 15.112,45.587 15.431,45.622 15.042 C 45.657 14.652,45.657 14.015,45.622 13.625 C 45.587 13.235,45.558 13.554,45.558 14.333 M246.708 20.624 C 247.327 20.656,248.340 20.656,248.958 20.624 C 249.577 20.592,249.071 20.565,247.833 20.565 C 246.596 20.565,246.090 20.592,246.708 20.624 M3.050 23.333 C 3.050 23.837,3.081 24.044,3.119 23.792 C 3.158 23.540,3.158 23.127,3.119 22.875 C 3.081 22.623,3.050 22.829,3.050 23.333 M303.412 34.667 C 303.412 41.129,303.433 43.773,303.458 40.542 C 303.484 37.310,303.484 32.023,303.458 28.792 C 303.433 25.560,303.412 28.204,303.412 34.667 M251.581 32.569 C 251.583 40.859,251.615 42.064,251.833 42.124 C 252.017 42.174,252.028 42.153,251.876 42.045 C 251.717 41.932,251.659 39.751,251.624 32.491 L 251.579 23.083 251.581 32.569 M3.717 24.500 C 3.717 25.004,3.748 25.210,3.786 24.958 C 3.824 24.706,3.824 24.294,3.786 24.042 C 3.748 23.790,3.717 23.996,3.717 24.500 M300.220 28.667 C 300.220 29.262,300.250 29.506,300.287 29.208 C 300.324 28.910,300.324 28.423,300.287 28.125 C 300.250 27.827,300.220 28.071,300.220 28.667 M172.055 29.417 C 172.055 30.058,172.086 30.300,172.122 29.955 C 172.158 29.609,172.157 29.084,172.120 28.788 C 172.083 28.492,172.054 28.775,172.055 29.417 M19.717 29.500 C 19.717 30.004,19.748 30.210,19.786 29.958 C 19.824 29.706,19.824 29.294,19.786 29.042 C 19.748 28.790,19.717 28.996,19.717 29.500 M26.042 28.788 C 26.385 28.824,26.948 28.824,27.292 28.788 C 27.635 28.752,27.354 28.723,26.667 28.723 C 25.979 28.723,25.698 28.752,26.042 28.788 M177.545 29.667 C 177.545 30.079,177.578 30.248,177.618 30.042 C 177.657 29.835,177.657 29.498,177.618 29.292 C 177.578 29.085,177.545 29.254,177.545 29.667 M318.381 29.457 C 318.912 29.490,319.737 29.490,320.214 29.456 C 320.692 29.422,320.258 29.395,319.250 29.396 C 318.242 29.396,317.851 29.424,318.381 29.457 M344.077 37.917 C 344.077 42.317,344.099 44.093,344.125 41.863 C 344.151 39.634,344.151 36.034,344.125 33.863 C 344.099 31.693,344.077 33.517,344.077 37.917 M171.500 34.534 C 171.454 36.798,171.474 38.593,171.545 38.522 C 171.615 38.452,171.653 36.599,171.628 34.405 L 171.583 30.417 171.500 34.534 M335.893 33.000 C 335.893 33.871,335.922 34.227,335.956 33.792 C 335.990 33.356,335.990 32.644,335.956 32.208 C 335.922 31.773,335.893 32.129,335.893 33.000 M311.877 34.786 C 312.131 34.825,312.506 34.824,312.711 34.784 C 312.916 34.744,312.708 34.713,312.250 34.714 C 311.792 34.716,311.624 34.748,311.877 34.786 M340.131 34.790 C 340.615 34.824,341.365 34.823,341.797 34.789 C 342.230 34.755,341.833 34.727,340.917 34.728 C 340.000 34.728,339.646 34.756,340.131 34.790 M161.292 39.284 C 161.498 39.324,161.835 39.324,162.042 39.284 C 162.248 39.245,162.079 39.212,161.667 39.212 C 161.254 39.212,161.085 39.245,161.292 39.284 M219.625 45.622 C 220.015 45.657,220.652 45.657,221.042 45.622 C 221.431 45.587,221.112 45.558,220.333 45.558 C 219.554 45.558,219.235 45.587,219.625 45.622 M312.635 47.791 C 314.039 47.819,316.289 47.819,317.635 47.791 C 318.982 47.763,317.833 47.740,315.083 47.741 C 312.333 47.741,311.232 47.763,312.635 47.791 M332.802 47.791 C 334.206 47.819,336.456 47.819,337.802 47.791 C 339.148 47.763,338.000 47.740,335.250 47.741 C 332.500 47.741,331.398 47.763,332.802 47.791 " stroke="none" fill="#c0bcbc" fill-rule="evenodd"></path><path id="path4" d="M95.875 9.956 C 96.310 9.990,97.023 9.990,97.458 9.956 C 97.894 9.922,97.537 9.893,96.667 9.893 C 95.796 9.893,95.440 9.922,95.875 9.956 M45.558 14.333 C 45.558 15.112,45.587 15.431,45.622 15.042 C 45.657 14.652,45.657 14.015,45.622 13.625 C 45.587 13.235,45.558 13.554,45.558 14.333 M246.708 20.624 C 247.327 20.656,248.340 20.656,248.958 20.624 C 249.577 20.592,249.071 20.565,247.833 20.565 C 246.596 20.565,246.090 20.592,246.708 20.624 M3.050 23.333 C 3.050 23.837,3.081 24.044,3.119 23.792 C 3.158 23.540,3.158 23.127,3.119 22.875 C 3.081 22.623,3.050 22.829,3.050 23.333 M303.412 34.667 C 303.412 41.129,303.433 43.773,303.458 40.542 C 303.484 37.310,303.484 32.023,303.458 28.792 C 303.433 25.560,303.412 28.204,303.412 34.667 M251.581 32.569 C 251.583 40.859,251.615 42.064,251.833 42.124 C 252.017 42.174,252.028 42.153,251.876 42.045 C 251.717 41.932,251.659 39.751,251.624 32.491 L 251.579 23.083 251.581 32.569 M3.717 24.500 C 3.717 25.004,3.748 25.210,3.786 24.958 C 3.824 24.706,3.824 24.294,3.786 24.042 C 3.748 23.790,3.717 23.996,3.717 24.500 M300.220 28.667 C 300.220 29.262,300.250 29.506,300.287 29.208 C 300.324 28.910,300.324 28.423,300.287 28.125 C 300.250 27.827,300.220 28.071,300.220 28.667 M172.055 29.417 C 172.055 30.058,172.086 30.300,172.122 29.955 C 172.158 29.609,172.157 29.084,172.120 28.788 C 172.083 28.492,172.054 28.775,172.055 29.417 M19.717 29.500 C 19.717 30.004,19.748 30.210,19.786 29.958 C 19.824 29.706,19.824 29.294,19.786 29.042 C 19.748 28.790,19.717 28.996,19.717 29.500 M26.042 28.788 C 26.385 28.824,26.948 28.824,27.292 28.788 C 27.635 28.752,27.354 28.723,26.667 28.723 C 25.979 28.723,25.698 28.752,26.042 28.788 M177.545 29.667 C 177.545 30.079,177.578 30.248,177.618 30.042 C 177.657 29.835,177.657 29.498,177.618 29.292 C 177.578 29.085,177.545 29.254,177.545 29.667 M318.381 29.457 C 318.912 29.490,319.737 29.490,320.214 29.456 C 320.692 29.422,320.258 29.395,319.250 29.396 C 318.242 29.396,317.851 29.424,318.381 29.457 M344.077 37.917 C 344.077 42.317,344.099 44.093,344.125 41.863 C 344.151 39.634,344.151 36.034,344.125 33.863 C 344.099 31.693,344.077 33.517,344.077 37.917 M171.500 34.534 C 171.454 36.798,171.474 38.593,171.545 38.522 C 171.615 38.452,171.653 36.599,171.628 34.405 L 171.583 30.417 171.500 34.534 M335.893 33.000 C 335.893 33.871,335.922 34.227,335.956 33.792 C 335.990 33.356,335.990 32.644,335.956 32.208 C 335.922 31.773,335.893 32.129,335.893 33.000 M311.877 34.786 C 312.131 34.825,312.506 34.824,312.711 34.784 C 312.916 34.744,312.708 34.713,312.250 34.714 C 311.792 34.716,311.624 34.748,311.877 34.786 M340.131 34.790 C 340.615 34.824,341.365 34.823,341.797 34.789 C 342.230 34.755,341.833 34.727,340.917 34.728 C 340.000 34.728,339.646 34.756,340.131 34.790 M161.292 39.284 C 161.498 39.324,161.835 39.324,162.042 39.284 C 162.248 39.245,162.079 39.212,161.667 39.212 C 161.254 39.212,161.085 39.245,161.292 39.284 M219.625 45.622 C 220.015 45.657,220.652 45.657,221.042 45.622 C 221.431 45.587,221.112 45.558,220.333 45.558 C 219.554 45.558,219.235 45.587,219.625 45.622 M312.635 47.791 C 314.039 47.819,316.289 47.819,317.635 47.791 C 318.982 47.763,317.833 47.740,315.083 47.741 C 312.333 47.741,311.232 47.763,312.635 47.791 M332.802 47.791 C 334.206 47.819,336.456 47.819,337.802 47.791 C 339.148 47.763,338.000 47.740,335.250 47.741 C 332.500 47.741,331.398 47.763,332.802 47.791 " stroke="none" fill="#c0bcbc" fill-rule="evenodd"></path></g></svg>