<svg xmlns="http://www.w3.org/2000/svg" width="2479.734" height="281.836" viewBox="0 0 2479.734 281.836"><defs><style>.a{fill:#bcbcbc;}</style></defs><path class="a" d="M745.729,275.756V228.573h-4.424v-9.9H726.351v9.689h-6.319v-5.055h-2.949V217.2l-6.53-3.792-5.9,2.949-5.055-2.949-5.477,2.317v13.06h-2.738v47.6H687.8V251.743H683.17V199.5h-5.477V188.13H657.472v11.585H636.829V280.6H627.35v-29.49h-3.792V199.5h-6.74V188.341H610.71v-7.794l-5.266-2.738-6.53,2.949v5.9h-6.951V199.5H579.746v2.949H574.69v26.119h-4.423V93.343h-7.162V87.655h-16.43V72.911h-9.268V63.853l-7.583-4-7.583,3.791v5.477h-7.372v19.8h-8.215v83.413H490.435v13.481H477.586V169.594l-29.911,17.9h-7.162v47.183H425.136v4.845h-8.426v10.321h-5.687v-9.689H392.487v35.6h-4.423V228.994H384.9V199.715h-3.581V178.651l-5.9-7.794V156.745l-5.477-2.738-6.109,3.37v13.481l-4.213,8v-13.9H338.353v13.692H335.4v49.922h-3.37V250.69H327.61V228.573h-2.317V199.5h-5.687V188.762H298.753V199.5l-20.643-.211v14.534l-3.581,2.317v12.428H264V125.36h-5.055v-17.9H238.931v17.694H218.078v105.32h-6.951V156.956h1.9v-4.845h-7.583v-15.8h-8.215v-9.689l-8.426-3.792-7.583,3.581v9.9H170.684v16.43H154.465v4.423h-7.583V239.1h-4.634V199.294h-8.215v-7.162h3.16V180.547l-5.687-3.16-6.319,3.16v11.585h3.16V199.5h-7.583V185.813h-8.215V127.887H90.641V109.351H69.788v18.536H66.207v15.377H52.094V159.9H48.513V77.755H34.822V56.9L26.4,48.687l-8,8.215V77.966H5.543v5.477H-.566V275.756H-30.9V228.994h-4.423V146.213h-5.9V142H-53.436V124.517H-60.6v-9.585l-5.477-4-5.687,4v11.9h-6.319v15.587h-8.636V283.55h-5.266v-51.4h1.264v-3.581h-5.055v-9.689h-15.8v9.689h-8.847V218.358a6.014,6.014,0,0,0-6.213-4.951c-5.477,0-6.109,3.264-6.109,3.264s-1.053-3.053-6.636-3.053c-4.845,0-5.266,4.74-5.266,4.74v10.426h-3.581v2.949h1.9v74.356h-6.319V231.733h1.9v-2.949H-155.6V218.462h-15.377v9.057h-9.479V216.988s-1.053-3.37-5.9-3.37a6.506,6.506,0,0,0-5.9,3.37s-.843-3.476-5.792-3.476a6.707,6.707,0,0,0-5.583,3.266v11.8h-2.528v47.394h-4.423V134.207h1.685v-4.423h-6.951v-16.43h-24.224v16.219H-264.5V275.967h-10.532v-73.3h1.685v-3.37h-5.9V187.077h-18.326v12.217h-8v-6.951h2.106v-11.8l-5.477-3.37-6.74,3.792v11.585h2.106V199.5h-6.951V330.522H745.729" transform="translate(320.527 -48.687)"/><path class="a" d="M444.31,306.928h17.413V266.486H483.63V254.128H506.1V264.8h8.987V244.017h35.949V231.66h14.6v10.672h8.987V175.489h9.549V147.966l5.617-4.494,6.179,4.494v24.153h6.179V159.2h27.1v13.2h7.583V286.145h3.791V194.728H657.9V177.455h26.119v13.9h4.213V310.58h65.3V289.516h5.055V96.991h6.74V89.829h12.638V65.4h14.745v3.37H802.4v19.8h6.74V241.911h13.9v-11.8h15.587V223.8H866.01v79.622h14.745V214.949h17.694V200.2h24.434v12.217h7.162V310.58h13.481v-138.6h15.166V151.336h26.119v18.958h4.213v72.881h10.953V213.264h11.374V194.307l7.583-4.634,6.319,4.634v16.851h21.906v42.549h5.055V145.859h47.6V302.154h16.851v-36.23h9.689V241.911h8.847V223.8h18.115v19.379h19.8v65.3h9.689V213.264h46.341v95.209H1246V99.519h20.643V67.08h23.592v31.6h5.477V308.894h4.213V213.685h51.4V303h16.009V288.252h27.8v6.74h20.643v18.536h8.847V212l14.534-14.534h26.33v85.309h11.374v16.009h60.243v11.8h8.847V265.5h23.17v-11.8h23.17v8.847h9.268v-93.1h11.374v-9.268h22.328V317.741L444.223,319.075" transform="translate(844.469 -37.24)"/></svg>