<?xml version="1.0" encoding="utf-8"?>
<!-- Generator: Adobe Illustrator 24.0.3, SVG Export Plug-In . SVG Version: 6.00 Build 0)  -->
<svg version="1.0" id="Layer_1" xmlns="http://www.w3.org/2000/svg" xmlns:xlink="http://www.w3.org/1999/xlink" x="0px" y="0px"
	 viewBox="0 0 226.9 53.6" enable-background="new 0 0 226.9 53.6" xml:space="preserve">
<g>
	<defs>
		<rect id="SVGID_1_" x="-183.4" y="305.1" width="750" height="500"/>
	</defs>
	<clipPath id="SVGID_2_">
		<use xlink:href="#SVGID_1_"  overflow="visible"/>
	</clipPath>
	
		<linearGradient id="SVGID_3_" gradientUnits="userSpaceOnUse" x1="206.709" y1="458.7746" x2="817.257" y2="458.7746" gradientTransform="matrix(1 0 0 -1 0 802.3009)">
		<stop  offset="0" style="stop-color:#FFFFFF;stop-opacity:0"/>
		<stop  offset="1" style="stop-color:#FFFFFF"/>
	</linearGradient>
	
		<ellipse opacity="0.2" clip-path="url(#SVGID_2_)" fill="url(#SVGID_3_)" enable-background="new    " cx="512" cy="343.5" rx="305.3" ry="6.2"/>
</g>
<g>
	<defs>
		<rect id="SVGID_4_" x="-183.4" y="305.1" width="750" height="500"/>
	</defs>
	<clipPath id="SVGID_5_">
		<use xlink:href="#SVGID_4_"  overflow="visible"/>
	</clipPath>
	
		<linearGradient id="SVGID_6_" gradientUnits="userSpaceOnUse" x1="-596.62" y1="478.0661" x2="229.808" y2="478.0661" gradientTransform="matrix(1 0 0 -1 0 802.3009)">
		<stop  offset="0" style="stop-color:#FFFFFF;stop-opacity:0"/>
		<stop  offset="1" style="stop-color:#FFFFFF"/>
	</linearGradient>
	<path opacity="0.1" clip-path="url(#SVGID_5_)" fill="url(#SVGID_6_)" enable-background="new    " d="M229.8,324.2
		c0,0.8-185,1.4-413.2,1.4s-413.2-0.6-413.2-1.4s185-1.4,413.2-1.4L229.8,324.2L229.8,324.2z"/>
</g>
<g>
	<defs>
		<rect id="SVGID_7_" x="-183.4" y="305.1" width="750" height="500"/>
	</defs>
	<clipPath id="SVGID_8_">
		<use xlink:href="#SVGID_7_"  overflow="visible"/>
	</clipPath>
	
		<linearGradient id="SVGID_9_" gradientUnits="userSpaceOnUse" x1="193.095" y1="462.1876" x2="-250.873" y2="462.1876" gradientTransform="matrix(1 0 0 -1 0 802.3009)">
		<stop  offset="0" style="stop-color:#FFFFFF;stop-opacity:0"/>
		<stop  offset="1" style="stop-color:#FFFFFF"/>
	</linearGradient>
	
		<ellipse opacity="0.1" clip-path="url(#SVGID_8_)" fill="url(#SVGID_9_)" enable-background="new    " cx="-28.9" cy="340.1" rx="222" ry="2.7"/>
</g>
<g>
	<defs>
		<rect id="SVGID_10_" x="-183.4" y="305.1" width="750" height="500"/>
	</defs>
	<clipPath id="SVGID_11_">
		<use xlink:href="#SVGID_10_"  overflow="visible"/>
	</clipPath>
	
		<linearGradient id="SVGID_12_" gradientUnits="userSpaceOnUse" x1="-103.998" y1="443.9116" x2="377.174" y2="443.9116" gradientTransform="matrix(1 0 0 -1 0 802.3009)">
		<stop  offset="0" style="stop-color:#FFFFFF;stop-opacity:0"/>
		<stop  offset="1" style="stop-color:#FFFFFF"/>
	</linearGradient>
	<path opacity="0.1" clip-path="url(#SVGID_11_)" fill="url(#SVGID_12_)" enable-background="new    " d="M377.2,358.4
		c0,1.5-107.7,2.7-240.6,2.7s-240.6-1.2-240.6-2.7s107.7-2.7,240.6-2.7L377.2,358.4z"/>
</g>
<g>
	<defs>
		<rect id="SVGID_13_" x="-183.4" y="305.1" width="750" height="500"/>
	</defs>
	<clipPath id="SVGID_14_">
		<use xlink:href="#SVGID_13_"  overflow="visible"/>
	</clipPath>
	
		<linearGradient id="SVGID_15_" gradientUnits="userSpaceOnUse" x1="-14.377" y1="312.5556" x2="538.981" y2="312.5556" gradientTransform="matrix(1 0 0 -1 0 802.3009)">
		<stop  offset="0" style="stop-color:#FFFFFF;stop-opacity:0"/>
		<stop  offset="1" style="stop-color:#FFFFFF"/>
	</linearGradient>
	
		<ellipse opacity="0.1" clip-path="url(#SVGID_14_)" fill="url(#SVGID_15_)" enable-background="new    " cx="262.3" cy="489.7" rx="276.7" ry="1.6"/>
</g>
<g>
	<defs>
		<rect id="SVGID_16_" x="-183.4" y="305.1" width="750" height="500"/>
	</defs>
	<clipPath id="SVGID_17_">
		<use xlink:href="#SVGID_16_"  overflow="visible"/>
	</clipPath>
	
		<linearGradient id="SVGID_18_" gradientUnits="userSpaceOnUse" x1="-381.749" y1="312.5556" x2="-80.877" y2="312.5556" gradientTransform="matrix(1 0 0 -1 0 802.3009)">
		<stop  offset="0" style="stop-color:#FFFFFF;stop-opacity:0"/>
		<stop  offset="1" style="stop-color:#FFFFFF"/>
	</linearGradient>
	
		<ellipse opacity="0.1" clip-path="url(#SVGID_17_)" fill="url(#SVGID_18_)" enable-background="new    " cx="-231.3" cy="489.7" rx="150.4" ry="3.7"/>
</g>
<g>
	<defs>
		<rect id="SVGID_19_" x="-183.4" y="305.1" width="750" height="500"/>
	</defs>
	<clipPath id="SVGID_20_">
		<use xlink:href="#SVGID_19_"  overflow="visible"/>
	</clipPath>
	
		<linearGradient id="SVGID_21_" gradientUnits="userSpaceOnUse" x1="-381.749" y1="283.1896" x2="-80.877" y2="283.1896" gradientTransform="matrix(1 0 0 -1 0 802.3009)">
		<stop  offset="0" style="stop-color:#FFFFFF;stop-opacity:0"/>
		<stop  offset="1" style="stop-color:#FFFFFF"/>
	</linearGradient>
	
		<ellipse opacity="0.1" clip-path="url(#SVGID_20_)" fill="url(#SVGID_21_)" enable-background="new    " cx="-231.3" cy="519.1" rx="150.4" ry="14.9"/>
</g>
<g>
	<defs>
		<rect id="SVGID_22_" x="-183.4" y="305.1" width="750" height="500"/>
	</defs>
	<clipPath id="SVGID_23_">
		<use xlink:href="#SVGID_22_"  overflow="visible"/>
	</clipPath>
	
		<linearGradient id="SVGID_24_" gradientUnits="userSpaceOnUse" x1="-424.256" y1="360.9866" x2="197.872" y2="360.9866" gradientTransform="matrix(1 0 0 -1 0 802.3009)">
		<stop  offset="0" style="stop-color:#FFFFFF;stop-opacity:0"/>
		<stop  offset="1" style="stop-color:#FFFFFF"/>
	</linearGradient>
	
		<ellipse opacity="0.1" clip-path="url(#SVGID_23_)" fill="url(#SVGID_24_)" enable-background="new    " cx="-113.2" cy="441.3" rx="311.1" ry="2.1"/>
</g>
<g>
	<defs>
		<rect id="SVGID_25_" x="-183.4" y="305.1" width="750" height="500"/>
	</defs>
	<clipPath id="SVGID_26_">
		<use xlink:href="#SVGID_25_"  overflow="visible"/>
	</clipPath>
	
		<linearGradient id="SVGID_27_" gradientUnits="userSpaceOnUse" x1="825.476" y1="443.9116" x2="406.542" y2="443.9116" gradientTransform="matrix(1 0 0 -1 0 802.3009)">
		<stop  offset="0" style="stop-color:#FFFFFF;stop-opacity:0"/>
		<stop  offset="1" style="stop-color:#FFFFFF"/>
	</linearGradient>
	<path opacity="0.28" clip-path="url(#SVGID_26_)" fill="url(#SVGID_27_)" enable-background="new    " d="M406.5,358.4
		c0-0.6,93.8-1,209.5-1l209.5,1c0,0.6-93.8,1-209.5,1S406.5,359,406.5,358.4z"/>
</g>
<g>
	<defs>
		<rect id="SVGID_28_" x="-183.4" y="305.1" width="750" height="500"/>
	</defs>
	<clipPath id="SVGID_29_">
		<use xlink:href="#SVGID_28_"  overflow="visible"/>
	</clipPath>
	
		<linearGradient id="SVGID_30_" gradientUnits="userSpaceOnUse" x1="37.623" y1="305.5436" x2="372.669" y2="305.5436" gradientTransform="matrix(1 0 0 -1 0 802.3009)">
		<stop  offset="0" style="stop-color:#FFFFFF;stop-opacity:0"/>
		<stop  offset="1" style="stop-color:#FFFFFF"/>
	</linearGradient>
	<path opacity="0.2" clip-path="url(#SVGID_29_)" fill="url(#SVGID_30_)" enable-background="new    " d="M372.7,496.8
		c0-0.4-75-0.6-167.5-0.6l-167.5,0.6c0,0.4,75,0.6,167.5,0.6L372.7,496.8z"/>
</g>
<g>
	<defs>
		<rect id="SVGID_31_" x="-183.4" y="305.1" width="750" height="500"/>
	</defs>
	<clipPath id="SVGID_32_">
		<use xlink:href="#SVGID_31_"  overflow="visible"/>
	</clipPath>
	
		<linearGradient id="SVGID_33_" gradientUnits="userSpaceOnUse" x1="-85.54" y1="276.7626" x2="250.307" y2="276.7626" gradientTransform="matrix(1 0 0 -1 0 802.3009)">
		<stop  offset="0" style="stop-color:#FFFFFF;stop-opacity:0"/>
		<stop  offset="1" style="stop-color:#FFFFFF"/>
	</linearGradient>
	<path opacity="0.1" clip-path="url(#SVGID_32_)" fill="url(#SVGID_33_)" enable-background="new    " d="M250.3,525.5
		c0-0.4-75.2-0.6-167.9-0.6l-167.9,0.6c0,0.4,75.2,0.6,167.9,0.6L250.3,525.5z"/>
</g>
<g>
	<defs>
		<rect id="SVGID_34_" x="-183.4" y="305.1" width="750" height="500"/>
	</defs>
	<clipPath id="SVGID_35_">
		<use xlink:href="#SVGID_34_"  overflow="visible"/>
	</clipPath>
	
		<linearGradient id="SVGID_36_" gradientUnits="userSpaceOnUse" x1="21.357" y1="324.3506" x2="671.127" y2="324.3506" gradientTransform="matrix(1 0 0 -1 0 802.3009)">
		<stop  offset="0" style="stop-color:#FFFFFF;stop-opacity:0"/>
		<stop  offset="1" style="stop-color:#FFFFFF"/>
	</linearGradient>
	<path opacity="0.1" clip-path="url(#SVGID_35_)" fill="url(#SVGID_36_)" enable-background="new    " d="M671.1,478
		c0-0.4-145.5-0.6-324.9-0.6L21.4,478c0,0.4,145.5,0.6,324.9,0.6L671.1,478z"/>
</g>
<g>
	<defs>
		<rect id="SVGID_37_" x="-183.4" y="305.1" width="750" height="500"/>
	</defs>
	<clipPath id="SVGID_38_">
		<use xlink:href="#SVGID_37_"  overflow="visible"/>
	</clipPath>
	
		<linearGradient id="SVGID_39_" gradientUnits="userSpaceOnUse" x1="315.89" y1="408.2426" x2="-12.974" y2="408.2426" gradientTransform="matrix(1 0 0 -1 0 802.3009)">
		<stop  offset="0" style="stop-color:#FFFFFF;stop-opacity:0"/>
		<stop  offset="1" style="stop-color:#FFFFFF"/>
	</linearGradient>
	<path opacity="0.1" clip-path="url(#SVGID_38_)" fill="url(#SVGID_39_)" enable-background="new    " d="M-13,394.1
		c0-0.9,73.6-1.7,164.4-1.7l164.4,1.7c0,0.9-73.6,1.7-164.4,1.7S-13,395-13,394.1z"/>
</g>
<g>
	<defs>
		<rect id="SVGID_40_" x="-183.4" y="305.1" width="750" height="500"/>
	</defs>
	<clipPath id="SVGID_41_">
		<use xlink:href="#SVGID_40_"  overflow="visible"/>
	</clipPath>
	
		<linearGradient id="SVGID_42_" gradientUnits="userSpaceOnUse" x1="-126.816" y1="348.8916" x2="263.124" y2="348.8916" gradientTransform="matrix(1 0 0 -1 0 802.3009)">
		<stop  offset="0" style="stop-color:#FFFFFF;stop-opacity:0"/>
		<stop  offset="1" style="stop-color:#FFFFFF"/>
	</linearGradient>
	<path opacity="0.28" clip-path="url(#SVGID_41_)" fill="url(#SVGID_42_)" enable-background="new    " d="M263.1,453.4
		c0-0.6-87.3-1-195-1l-195,1c0,0.6,87.3,1,195,1L263.1,453.4z"/>
</g>
<g>
	<defs>
		<rect id="SVGID_43_" x="-183.4" y="305.1" width="750" height="500"/>
	</defs>
	<clipPath id="SVGID_44_">
		<use xlink:href="#SVGID_43_"  overflow="visible"/>
	</clipPath>
	
		<linearGradient id="SVGID_45_" gradientUnits="userSpaceOnUse" x1="255.813" y1="399.4216" x2="64.413" y2="399.4216" gradientTransform="matrix(1 0 0 -1 0 802.3009)">
		<stop  offset="0" style="stop-color:#FFFFFF;stop-opacity:0"/>
		<stop  offset="1" style="stop-color:#FFFFFF"/>
	</linearGradient>
	
		<ellipse opacity="0.28" clip-path="url(#SVGID_44_)" fill="url(#SVGID_45_)" enable-background="new    " cx="160.1" cy="402.9" rx="95.7" ry="1"/>
</g>
<g>
	<defs>
		<rect id="SVGID_46_" x="-183.4" y="305.1" width="750" height="500"/>
	</defs>
	<clipPath id="SVGID_47_">
		<use xlink:href="#SVGID_46_"  overflow="visible"/>
	</clipPath>
	<path clip-path="url(#SVGID_47_)" fill="#EDEDED" d="M145.5,581.4h125.8l-6-1.4c-4.7-1.1-2.8-8.1-12.6-4.7c0,0-4.5-6.6-12.5-3.2
		c0,0,1-5-3.6-7.5s-8.8,0.9-9.5,2.5c0,0,0.7-8-7.5-11.7s-14.5,2.3-16.1,4.8c0,0-4.1-6.8-14.3-4.5s-9,13.8-9,13.8s-3.8-4.1-8.3-1
		c-4.9,3.3-1.7,8.6-1.7,8.6S161,578.3,145.5,581.4L145.5,581.4z"/>
</g>
<g>
	<defs>
		<rect id="SVGID_48_" x="-183.4" y="305.1" width="750" height="500"/>
	</defs>
	<clipPath id="SVGID_49_">
		<use xlink:href="#SVGID_48_"  overflow="visible"/>
	</clipPath>
	<path opacity="0.6" clip-path="url(#SVGID_49_)" fill="#E8E8E8" enable-background="new    " d="M-132.8,418.4H1.5l-6.4-1.5
		c-5.1-1.2-2.9-8.7-13.5-5c0,0-4.8-7-13.4-3.4c0,0,1.1-5.4-3.9-8s-9.4,0.9-10.2,2.7c0,0,0.7-8.6-8-12.5s-15.5,2.5-17.2,5.1
		c0,0-4.3-7.3-15.2-4.8s-9.6,14.8-9.6,14.8s-4.1-4.3-8.9-1.1c-5.2,3.5-1.8,9.1-1.8,9.1S-116.2,415.1-132.8,418.4L-132.8,418.4z"/>
</g>
<g>
	<defs>
		<rect id="SVGID_50_" x="-183.4" y="305.1" width="750" height="500"/>
	</defs>
	<clipPath id="SVGID_51_">
		<use xlink:href="#SVGID_50_"  overflow="visible"/>
	</clipPath>
	<path opacity="0.6" clip-path="url(#SVGID_51_)" fill="#EAEAEA" enable-background="new    " d="M-98.2,509.9H59.1l-7.5-1.7
		c-5.9-1.4-3.4-10.2-15.8-5.9c0,0-5.6-8.2-15.7-4c0,0,1.3-6.3-4.5-9.4s-11,1.1-11.9,3.1c0,0,0.9-10.1-9.4-14.6s-18.2,2.9-20.1,6
		c0,0-5.1-8.5-17.9-5.6s-11.3,17.3-11.3,17.3s-4.8-5.1-10.4-1.3c-6.1,4.1-2.2,10.7-2.2,10.7S-78.7,506-98.2,509.9L-98.2,509.9z"/>
</g>
<g>
	<defs>
		<rect id="SVGID_52_" x="-183.4" y="305.1" width="750" height="500"/>
	</defs>
	<clipPath id="SVGID_53_">
		<use xlink:href="#SVGID_52_"  overflow="visible"/>
	</clipPath>
	<path opacity="0.8" clip-path="url(#SVGID_53_)" fill="#E8E8E8" enable-background="new    " d="M263.1,440.9h131.2l-6.2-1.6
		c-4.9-1.3-2.9-9.3-13.2-5.4c0,0-4.7-7.5-13.1-3.7c0,0,1.1-5.7-3.8-8.6s-9.2,1-9.9,2.9c0,0,0.7-9.2-7.8-13.4s-15.2,2.7-16.8,5.4
		c0,0-4.2-7.8-14.9-5.1s-9.4,15.8-9.4,15.8s-4-4.6-8.7-1.2c-5.1,3.8-1.8,9.8-1.8,9.8S279.4,437.4,263.1,440.9L263.1,440.9z"/>
</g>
<g>
	<defs>
		<rect id="SVGID_54_" x="-183.4" y="305.1" width="750" height="500"/>
	</defs>
	<clipPath id="SVGID_55_">
		<use xlink:href="#SVGID_54_"  overflow="visible"/>
	</clipPath>
	
		<linearGradient id="SVGID_56_" gradientUnits="userSpaceOnUse" x1="25.3105" y1="311.8626" x2="25.3105" y2="331.2387" gradientTransform="matrix(1 0 0 -1 0 802.3009)">
		<stop  offset="0" style="stop-color:#FFFFFF;stop-opacity:0"/>
		<stop  offset="1" style="stop-color:#FFFFFF"/>
	</linearGradient>
	<path opacity="0.4" clip-path="url(#SVGID_55_)" fill="url(#SVGID_56_)" enable-background="new    " d="M-14.4,490.4H65
		c0,0-5.3-1.8-10.4-2.6c0,0,1-4.6-4.9-6.6c0,0,0.9-2.9-2.1-4.5c-2.3-1.2-4.7,0.2-4.7,0.2s-0.8-5.2-6.3-5.8s-6,3.5-6,3.5
		s-2.4-1.5-5.5-0.3s-3.5,4.4-3.5,4.4s-4.1-2.7-7.2,2.1c0,0-4.2-2.4-8.3,1.9S-1.4,488.8-14.4,490.4L-14.4,490.4z"/>
</g>
<g>
	<defs>
		<rect id="SVGID_57_" x="-183.4" y="305.1" width="750" height="500"/>
	</defs>
	<clipPath id="SVGID_58_">
		<use xlink:href="#SVGID_57_"  overflow="visible"/>
	</clipPath>
	<path opacity="0.4" clip-path="url(#SVGID_58_)" fill="#EDEDED" enable-background="new    " d="M389.9,546.7h91.4
		c0,0-6.1-2.6-12-3.7c0,0,1.2-6.5-5.6-9.5c0,0,1-4.2-2.5-6.4c-2.6-1.7-5.4,0.3-5.4,0.3s-0.9-7.3-7.3-8.3s-6.9,4.9-6.9,4.9
		s-2.7-2.2-6.4-0.4s-4.1,6.3-4.1,6.3s-4.7-3.8-8.3,3c0,0-4.8-3.4-9.5,2.7S404.8,544.4,389.9,546.7L389.9,546.7z"/>
</g>
<g>
	<defs>
		<rect id="SVGID_59_" x="-183.4" y="305.1" width="750" height="500"/>
	</defs>
	<clipPath id="SVGID_60_">
		<use xlink:href="#SVGID_59_"  overflow="visible"/>
	</clipPath>
	<path clip-path="url(#SVGID_60_)" fill="#EFEFEF" d="M323.2,568.4h155.9c0,0-22.3-5.9-24.3-7.8s-0.2-11.4-8.2-16s-17.2,2-17.2,2
		s1.2-5.6-3.6-8.6c-3.7-2.3-8,0.9-8,0.9s-1.7-11.5-11.5-5.6c0,0-3.8-10.6-18.9-10.2s-27.4,9.6-31.3,14.9s-3.1,12.7-1.9,15.5
		c0,0-3.4-2.9-7.7-0.1s-1.6,7.3-2.5,8.4S331.7,567.8,323.2,568.4L323.2,568.4z"/>
</g>
<g>
	<defs>
		<rect id="SVGID_61_" x="-183.4" y="305.1" width="750" height="500"/>
	</defs>
	<clipPath id="SVGID_62_">
		<use xlink:href="#SVGID_61_"  overflow="visible"/>
	</clipPath>
	<path opacity="0.4" clip-path="url(#SVGID_62_)" fill="#E8E8E8" enable-background="new    " d="M-270,416.6h204.3
		c0,0-29.3-7.7-31.8-10.3s-0.3-14.9-10.8-21s-22.5,2.6-22.5,2.6s1.6-7.3-4.7-11.3c-4.8-3-10.5,1.2-10.5,1.2s-2.2-15.1-15.1-7.4
		c0,0-5-13.9-24.7-13.4s-35.9,12.6-41,19.6s-4.1,16.7-2.5,20.4c0,0-4.5-3.8-10.1-0.1c-5.7,3.7-2.1,9.6-3.3,11
		C-244,409.5-258.9,415.9-270,416.6L-270,416.6z"/>
</g>
<g>
	<defs>
		<rect id="SVGID_63_" x="-183.4" y="305.1" width="750" height="500"/>
	</defs>
	<clipPath id="SVGID_64_">
		<use xlink:href="#SVGID_63_"  overflow="visible"/>
	</clipPath>
	<path opacity="0.4" clip-path="url(#SVGID_64_)" fill="#EFEFEF" enable-background="new    " d="M638.6,466.4H419.8
		c0,0,31.3-8.1,34.1-10.8s0.3-15.7,11.6-22s24.1,2.8,24.1,2.8s-1.7-7.7,5.1-11.9c5.1-3.2,11.3,1.2,11.3,1.2s2.4-15.9,16.2-7.7
		c0,0,5.3-14.6,26.5-14.1s38.4,13.3,43.9,20.6s4.4,17.5,2.7,21.4c0,0,4.8-4,10.8-0.1s2.3,10.1,3.5,11.6S626.8,465.7,638.6,466.4
		L638.6,466.4z"/>
</g>
<g>
	<defs>
		<rect id="SVGID_65_" x="-183.4" y="305.1" width="750" height="500"/>
	</defs>
	<clipPath id="SVGID_66_">
		<use xlink:href="#SVGID_65_"  overflow="visible"/>
	</clipPath>
	<path clip-path="url(#SVGID_66_)" fill="#99DDF2" d="M429.2,661.2l6.4-13.6l3.1-2.4l3.4-16.1l4-2.1c0.4,0,4-2.8,4.7-2.8
		s3.6-4.1,3.2-5s0.4-7,0.4-7s5.2-3.1,6.8-4.9s0.5-8.3,0.5-11s-0.3-6.5,0-6.9s3-1.8,4.6-1.7s8.9,0.7,9.4,1.2s1.4,13.3,1.5,14.2
		s2.9,6,3.4,6.6s2.3,2.6,2.3,3.1c0,0.2,0.2,4.1,0.4,8.5c1.3-0.9,2.1-1.7,2.1-2.1c0-2,3.2-18.3,5.3-20.3s17.4-4.4,17.4-4.4
		s0.8-32.3,2.4-35.5s12.5-9.2,12.5-14s4-29.1,4-29.1l18.6-0.8c2,0,11.7,19.1,13.7,21.1s12.5,4,14.1,4s4.8,7.2,4.8,9.6
		s0.8,22.3,2.8,22.3s25.5,20.7,25.5,22.3s2.2,42.5,3.6,43.9s12.5,14,15,14.8s30.3,8,31.9,9.6s22.2,13.2,21,13.2H462.5l1.4-14.5
		L429.2,661.2L429.2,661.2z"/>
</g>
<g>
	<defs>
		<rect id="SVGID_67_" x="-183.4" y="305.1" width="750" height="500"/>
	</defs>
	<clipPath id="SVGID_68_">
		<use xlink:href="#SVGID_67_"  overflow="visible"/>
	</clipPath>
	<g clip-path="url(#SVGID_68_)">
		<path id="B" fill="#91CFE8" d="M607,644.2v125.5h-847.9l14.8-134c0,0,38.9,2.6,51.8,9.4s34.2,6.8,44.4,6.8c10.2,0,38,5.3,46.3,0.5
			s35.1-9.9,49-9.9s50.9,4.3,58.3,7.7s11.1,11.1,34.2,17.9s50.9,19.9,56.5,17.6s60.2-15.7,78.7-12.8s34.2,13.2,44.4,11.4
			s31.5,6.8,45.4,2.6s48.1-10.9,54.6-14s27.8-4.8,39.8-7.4s60.2-11.1,63.9-16.2s7.4-9.3,13.9-10.2s4.6-0.9,14.8-3.5
			s20.4-7.7,25.9-5.1s7.7,7.7,24.7,5.1s27.1-3.4,41-0.8S606.9,644.2,607,644.2L607,644.2z"/>
	</g>
</g>
<g>
	<defs>
		<rect id="SVGID_69_" x="-183.4" y="305.1" width="750" height="500"/>
	</defs>
	<clipPath id="SVGID_70_">
		<use xlink:href="#SVGID_69_"  overflow="visible"/>
	</clipPath>
	<g clip-path="url(#SVGID_70_)">
		<path id="B_1_" fill="#BCE9F7" d="M607,644.2v125.5h-847.9l14.8-134c0,0,38.9,2.6,51.8,9.4s34.2,6.8,44.4,6.8
			c10.2,0,38,5.3,46.3,0.5s35.1-9.9,49-9.9s50.9,4.3,58.3,7.7s11.1,11.1,34.2,17.9s50.9,19.9,56.5,17.6s60.2-15.7,78.7-12.8
			s34.2,13.2,44.4,11.4s31.5,6.8,45.4,2.6s48.1-10.9,54.6-14s27.8-4.8,39.8-7.4s60.2-11.1,63.9-16.2s7.4-9.3,13.9-10.2
			s4.6-0.9,14.8-3.5s20.4-7.7,25.9-5.1s7.7,7.7,24.7,5.1s27.1-3.4,41-0.8S606.9,644.2,607,644.2L607,644.2z"/>
	</g>
</g>
<g>
	<defs>
		<rect id="SVGID_71_" x="-183.4" y="305.1" width="750" height="500"/>
	</defs>
	<clipPath id="SVGID_72_">
		<use xlink:href="#SVGID_71_"  overflow="visible"/>
	</clipPath>
	<g clip-path="url(#SVGID_72_)">
		<path id="C" fill="#91083D" d="M-193.3,654.7c5.5-0.3,20.3,15.2,31.9,12.6c7.6-1.6,13.4-4.3,17.2-4s87.1,16,91.1,19.9
			s31.4,11,38.6,11s28,3.2,34.1,6.2c8.4,4,36.8,26.3,61.6,20.5c8-1.9,39.8-14.1,51.4-11.1s27.7,0.7,42.9,5.5s74.4-1.8,84.2-5
			c9.9-3.2,62.3-26.7,67.7-25s26,3.4,34.1,7.3s38.2,7.6,48,10.7s33.2-5.6,39.5-4.8s19.7-0.9,23.3-0.9s67-23.4,80.2-19.3
			s77,8.2,77,8.2l1.6,135.4l-864.8,14.9V679.9C-233.5,679.9-199.9,655.1-193.3,654.7L-193.3,654.7z"/>
	</g>
</g>
<g>
	<defs>
		<rect id="SVGID_73_" x="-183.4" y="305.1" width="750" height="500"/>
	</defs>
	<clipPath id="SVGID_74_">
		<use xlink:href="#SVGID_73_"  overflow="visible"/>
	</clipPath>
	<g clip-path="url(#SVGID_74_)">
		<path id="C_1_" fill="#407184" d="M-193.3,654.7c5.5-0.3,20.3,15.2,31.9,12.6c7.6-1.6,13.4-4.3,17.2-4s87.1,16,91.1,19.9
			s31.4,11,38.6,11s28,3.2,34.1,6.2c8.4,4,36.8,26.3,61.6,20.5c8-1.9,39.8-14.1,51.4-11.1s27.7,0.7,42.9,5.5s74.4-1.8,84.2-5
			c9.9-3.2,62.3-26.7,67.7-25s26,3.4,34.1,7.3s38.2,7.6,48,10.7s33.2-5.6,39.5-4.8s19.7-0.9,23.3-0.9s67-23.4,80.2-19.3
			s77,8.2,77,8.2l1.6,135.4l-864.8,14.9V679.9C-233.5,679.9-199.9,655.1-193.3,654.7L-193.3,654.7z"/>
	</g>
</g>
<g>
	<g>
		<defs>
			<rect id="SVGID_75_" x="-183.4" y="305.1" width="750" height="500"/>
		</defs>
		<clipPath id="SVGID_76_">
			<use xlink:href="#SVGID_75_"  overflow="visible"/>
		</clipPath>
		<path clip-path="url(#SVGID_76_)" fill="#5B99B8" d="M847.3,779.1c0,0-56.9-81.7-67.6-85.5s-17.8-4.1-27.3-4.1
			s-100.5,9.2-109.2,2.2s-46.8-2.7-55.1-5.2s-50.2,34.3-64.4,37.6s-47.4,17.3-60.4,8.8s-42.7-17.5-51-17.5s-56.9,7.1-61.6,11
			s-16.6,16.3-33.2,18.7c-16.6,2.4-78.2,19.8-88.9,17.9s-52.7-15-53.7-15.8s-5.2-1.9-7-1.9s-4.9,2.1-6.7,1.7s-11.9-1.4-15.7-1.9
			s-21.8-11.4-25.6-11.9c-7.5-0.9-28.3-17.7-41-16.4c-9.3,0.9-28.9-5.1-32.9-5.5s-28.9,10-32.9,7.9S1.5,723-1.4,722.1
			s-12.4-7.7-16.1-7.7s-25.1,4.6-32.6,3.6s-29.4,0.4-35.6-0.5s-23.3-3.9-27.9-6.5s-31.5-7.7-35.6-11.9s-29.4-29.7-33.8-30.3
			s-14.1,0.4-16.1-1.2c-2-1.6-23.4-7.7-25.6-9.5s-33.3-8.6-38.8-9.8s-25.3-1.5-31.5-3s-32.6-4.2-32.6-4.2V847H839.1L847.3,779.1
			L847.3,779.1z"/>
	</g>
	<g>
		<defs>
			<rect id="SVGID_77_" x="-183.4" y="305.1" width="750" height="500"/>
		</defs>
		<clipPath id="SVGID_78_">
			<use xlink:href="#SVGID_77_"  overflow="visible"/>
		</clipPath>
		<path clip-path="url(#SVGID_78_)" fill="#5B99B8" d="M402.4,691.3c-0.6-1.1-4.7-0.3-5.1,0.3s-0.6,3.7-0.5,4.8s0.2,8.9,0.2,11.1
			s-3.8,1.7-3.8,1.7s-0.4-1.6-0.4-3.7s0.7-24.3,0.7-27.1s-1.6-2.8-3.3-2.8s-3.8,1.3-3.6,2.3s-0.4,8.1-0.2,11.4l0.4,14.4
			c-3.1,0.3-4.4-0.9-4.4-1.9s0.2-7.8,0.2-9.4s-1.2-2.6-2.8-2.4s-2.5,1.4-2.5,2.7s-0.5,8.2,0,10.8s1.6,3.2,3,3.4s7.3-0.3,7.3-0.3
			l0.2,15.2l5,0.5l-0.2-9.5c0,0,7.7-1.2,9-2s0.8-6.4,1.1-9.3S403.1,692.4,402.4,691.3L402.4,691.3z M10.9,718.2
			c-2.4-1.2-8.8-3.3-8.8-3.3c4.8,0.1,9.1,1.4,9.1,1.4c-1.1-1.5-6.4-6-6.4-6c4.3,2.2,7.9,4.7,7.9,4.7c-2.3-4.8-7.8-11.8-7.8-11.8
			c5.6,4.7,9.7,11,9.7,11c-1-5.1-5.7-20.4-5.7-20.4c3,5.5,7.4,18.5,7.4,18.5c-0.7-6.7-0.1-15.9-0.1-15.9c0.4,2.5,2.1,17.1,2.1,17.1
			c0.5-4.4,2.9-10,2.9-10c-0.5,1.7-1.1,8.5-1.1,8.5c1.6-4,6.8-10.4,6.8-10.4c-2.3,4-5.4,12.2-5.4,12.2c6.5-4.8,12.2-5.2,12.2-5.2
			c-4.2,1.5-10.2,6.9-10.2,6.9c5.5-1.5,9.9-1.4,9.9-1.4c-3.5,0.7-9.7,3.3-9.7,3.3l-5.4,4l-5-1.8c-5-0.7-8.3-0.8-8.3-0.8
			C7.9,718.1,10.9,718.2,10.9,718.2L10.9,718.2z M415.2,716.6c-1.2-1-4.4-3-4.4-3c2.6,0.7,4.8,2,4.8,2c-0.4-1-2.7-4.1-2.7-4.1
			c1.3,1.1,2.5,2.3,3.7,3.6c-0.6-2.9-2.7-7.5-2.7-7.5c2.4,3.3,3.8,7.3,3.8,7.3c0.1-2.9-0.5-11.9-0.5-11.9c0.9,3.4,1.6,11.1,1.6,11.1
			c0.5-3.8,2-8.7,2-8.7c-0.1,1.4-1.1,9.7-1.1,9.7c0.9-2.3,2.9-5.1,2.9-5.1c-0.5,0.9-1.7,4.5-1.7,4.5c1.4-2,5.1-4.8,5.1-4.8
			c-1.8,1.9-4.6,6-4.6,6c4.2-1.7,7.3-1.3,7.3-1.3c-2.5,0.3-6.5,2.4-6.5,2.4c3.2-0.1,5.6,0.6,5.6,0.6c-2-0.1-5.7,0.6-5.7,0.6
			l-3.5,1.5l-2.5-1.7c-2.6-1-4.4-1.6-4.4-1.6C412.9,716.2,414.1,716.3,415.2,716.6L415.2,716.6z M339.8,735.6c-2,0.1-7,0.8-7,0.8
			c3.5-1.3,6.9-1.9,6.9-1.9c-1.1-0.5-5.7-1.4-5.7-1.4c2.2,0,4.4,0.1,6.6,0.3c-2.5-2-7.7-4.3-7.7-4.3c3.1,0.7,6.1,1.8,8.9,3.3
			c-1.6-2.5-7.6-9.7-7.6-9.7c3.1,2.2,8.5,8.2,8.5,8.2c-1.6-3.6-2.7-8.9-2.7-8.9c0.7,1.3,4.4,9,4.4,9c-0.4-2.6,0.5-6.5,0.5-6.5
			c-0.1,1.1,0.6,5.1,0.6,5.1c0.5-2.7,3.2-7.8,3.2-7.8c-1,2.9-1.9,8.4-1.9,8.4c4-4.6,8-6.5,8-6.5c-2.8,2.1-6.3,6.9-6.3,6.9
			c3.8-2.5,7-3.7,7-3.7c-2.5,1.4-6.5,4.7-6.5,4.7l-7.2,4.3c-3.7,1.1-6.2,2-6.2,2C337.6,736.4,339.8,735.6,339.8,735.6L339.8,735.6z
			 M41.7,665.6c1.4,0,2.5,1.3,2.6,2.7s-0.1,13.7-0.1,15.5s2.6,2.4,2.6,2.4l0-19.5c-0.2-3.6,1.6-6.1,4.5-5.8s4.5,3.3,4.5,6.4
			s-0.6,28.1-0.6,28.1c1.7-0.4,2.8-1,2.8-2.6s-0.1-13-0.3-14.6s0.2-3.7,2.1-3.7s2.9,2.1,2.9,4.3s-0.2,11.5-1.3,15.4S55,699,55,699
			l-1.4,16.8h-4.3l-2.2-26.1c-4.6-0.3-6.3-3.8-6.7-5.5s-0.7-9.9-1-13.5S40.3,665.6,41.7,665.6L41.7,665.6z"/>
	</g>
	<g>
		<defs>
			<rect id="SVGID_79_" x="-183.4" y="305.1" width="750" height="500"/>
		</defs>
		<clipPath id="SVGID_80_">
			<use xlink:href="#SVGID_79_"  overflow="visible"/>
		</clipPath>
		<g clip-path="url(#SVGID_80_)">
			<path fill="#5B99B8" d="M56.8,716l-0.9-0.4c1.9-3.1,5.3-5.1,5.3-5.1C59.2,712.3,56.8,716,56.8,716L56.8,716z"/>
			<path fill="#5B99B8" d="M58.6,705c0,0-0.7,3.7-2.3,8.1c2.7-4.5,5.9-7.7,5.9-7.7c-2.6,3.4-6.2,10.3-6.2,10.3l-1.3-0.5
				C54.6,715.2,57.5,708.7,58.6,705L58.6,705z M51.9,714.1c0,0-0.5-4.4-1.5-7c0,0,2.2,3.8,2.5,7.4L51.9,714.1L51.9,714.1z"/>
			<path fill="#5B99B8" d="M53.7,712.8l0.9-8.2c0,0,0.2,2.3,0.1,5.3l1.6-8.8c0,0,0.1,3.6-0.6,8.3l2.1-9.2c0,0-0.3,7.4-2.7,15.1
				l-0.9-0.4l-0.1,0l-0.7-0.3l-0.7-0.3c0,0-0.2-7.5-0.9-11.8C51.8,702.7,53.3,707.5,53.7,712.8L53.7,712.8z"/>
			<path fill="#5B99B8" d="M51.6,712.7l-1,0.1c0.3-3.6,2.4-6.9,2.4-6.9C52,708.3,51.6,712.7,51.6,712.7L51.6,712.7z"/>
			<path fill="#5B99B8" d="M48.2,702.1c0,0,1.1,3.6,1.6,8.2c0.4-5.2,1.7-9.5,1.7-9.5c-0.7,4.2-0.9,12-0.9,12l-1.4,0.1
				C49.2,713,48.9,705.9,48.2,702.1L48.2,702.1z M46.4,713.3c0,0-2.4-3.7-4.5-5.6c0,0,3.7,2.4,5.6,5.4L46.4,713.3L46.4,713.3z"/>
			<path fill="#5B99B8" d="M47.3,711.3l-3-7.7c0,0,1.2,1.9,2.5,4.7l-2.6-8.6c0,0,1.7,3.2,3.3,7.6l-2.3-9.1c0,0,3.1,6.8,4.5,14.7
				l-0.6,0.1l-0.4,0l-0.1,0l-0.4,0l-1.1,0.1c0,0-3.5-6.6-6.2-10C41,703.1,44.6,706.7,47.3,711.3L47.3,711.3z"/>
			<path fill="#5B99B8" d="M388.7,721.5l-1,0.1c0.3-3.6,2.4-6.9,2.4-6.9C389.1,717.1,388.6,721.5,388.7,721.5L388.7,721.5z"/>
			<path fill="#5B99B8" d="M385.3,710.9c0,0,1.1,3.6,1.6,8.2c0.4-5.2,1.7-9.5,1.7-9.5c-0.7,4.2-0.9,12-0.9,12l-1.4,0.1
				C386.3,721.7,386,714.7,385.3,710.9L385.3,710.9z M383.4,722c0,0-2.4-3.7-4.5-5.6c0,0,3.7,2.4,5.6,5.4L383.4,722L383.4,722z"/>
			<path fill="#5B99B8" d="M384.4,720.1l-3-7.7c0,0,1.2,1.9,2.5,4.7l-2.6-8.6c0,0,1.7,3.2,3.3,7.6l-2.3-9.1c0,0,3.1,6.8,4.5,14.7
				l-2.5,0.3c0,0-3.5-6.6-6.2-10C378.1,711.9,381.6,715.5,384.4,720.1L384.4,720.1z"/>
			<path fill="#5B99B8" d="M433.6,723.1l-0.9-0.5c2.2-2.8,5.8-4.5,5.8-4.5C436.4,719.7,433.6,723.1,433.6,723.1L433.6,723.1z"/>
			<path fill="#5B99B8" d="M436.6,712.4c0,0-1,3.6-3.2,7.8c3.2-4.2,6.7-7,6.7-7c-2.9,3.1-7.3,9.5-7.3,9.5l-1.3-0.7
				C431.6,722,435.1,715.9,436.6,712.4L436.6,712.4z M429,720.7c0,0,0-4.4-0.7-7.1c0,0,1.7,4,1.7,7.6L429,720.7L429,720.7z"/>
			<path fill="#5B99B8" d="M430.9,719.6l1.7-8c0,0,0,2.3-0.5,5.3l2.6-8.6c0,0-0.3,3.6-1.5,8.2l3-8.9c0,0-1.1,7.3-4.3,14.7l-2.3-1.2
				c0,0,0.7-7.4,0.3-11.8C430.7,712.7,431,716.1,430.9,719.6L430.9,719.6z"/>
			<path fill="#5B99B8" d="M-145.2,703.8l-1.1-0.5c2.5-3.8,6.7-6.2,6.7-6.2C-142.1,699.3-145.2,703.8-145.2,703.8L-145.2,703.8z"/>
			<path fill="#5B99B8" d="M-142.7,690.2c0,0-0.9,4.6-3.1,10c3.5-5.5,7.5-9.4,7.5-9.4c-3.3,4.2-8,12.6-8,12.6l-1.6-0.7
				C-147.9,702.7-144.1,694.7-142.7,690.2L-142.7,690.2z M-151.2,701.3c0,0-0.5-5.5-1.6-8.7c0,0,2.6,4.8,2.9,9.3L-151.2,701.3
				L-151.2,701.3z"/>
			<path fill="#5B99B8" d="M-149,699.8c0.5-2.7,1.2-7.2,1.3-10.1c0,0,0.2,2.8,0,6.6c0.9-3.5,1.9-7.8,2.3-11c0,0,0,4.5-0.9,10.3
				c1-3.7,2.2-8.1,2.8-11.4c0,0-0.6,9.2-3.7,18.8l-2.9-1.2c0,0,0-9.3-0.9-14.7C-151.1,687.1-149.3,693.1-149,699.8L-149,699.8z"/>
			<path fill="#5B99B8" d="M173.2,748.3l-1.1,0c0.7-3.8,3.2-7.2,3.2-7.2C174.1,743.7,173.2,748.3,173.2,748.3L173.2,748.3z"/>
			<path fill="#5B99B8" d="M170.7,736.6c0,0,0.8,4,0.9,9c0.9-5.6,2.8-10,2.8-10c-1.2,4.5-2.1,12.7-2.1,12.7l-1.5,0
				C170.7,748.3,171,740.7,170.7,736.6L170.7,736.6z M167.6,748.3c0,0-2.2-4.2-4.2-6.4c0,0,3.7,3,5.4,6.4L167.6,748.3L167.6,748.3z"
				/>
			<path fill="#5B99B8" d="M168.8,746.4l-2.4-8.5c0,0,1.1,2.2,2.2,5.3l-1.9-9.5c0,0,1.5,3.6,2.7,8.5c-0.4-3.3-1-7.2-1.6-10
				c0,0,2.6,7.5,3.4,16.1l-0.7,0l-0.5,0l-1.6,0c0,0-3.1-7.4-5.6-11.4C162.9,737,166.3,741.2,168.8,746.4L168.8,746.4z"/>
			<path fill="#5B99B8" d="M297,723.6c0.1-2.3,0-17.5,0-20.7s1.1-3.3,1.7-3.3s1.9,0.7,1.9,2.8l0,18.4c-0.1,2.3,0.4,3.8,1.5,3.8
				s2-1.7,2.2-4.9c0.1-3.1,0.8-33.1,0.8-37.2s1.5-4.1,2.4-3.9s1.7,1.5,1.7,3.2l-0.4,32.5c0,3.9,0.3,5.4,1.8,5.2
				c1.5-0.1,1.8-2.6,1.8-4.1l0.1-48.9c0.1-3.1,2.5-2.6,3-1.7c0.5,0.9,0.6,4,0.4,9.8l-0.6,44.8c-0.3,1.7,0.6,5.5,1.2,6
				c0.5,0.5,1.7-0.3,1.7-2.5l0.4-32.6c0.1-2.5,3-2.1,3.5-1.3c0.5,0.8,0.7,1.9,0.7,5.8s-0.5,25.7-0.5,30s-0.9,4.5-2.2,5.8
				s-4.2,0.6-5.5,2.2c-1.3,1.6-1.5,16.2-1.5,20.2l-7.4-0.6c0,0,0.7-22.8,0-23.6c-0.7-0.9-4-0.6-5.7-0.6
				C298.5,728.5,296.9,725.9,297,723.6L297,723.6z"/>
		</g>
	</g>
</g>
<g>
	<g>
		<defs>
			<rect id="SVGID_81_" x="-183.4" y="305.1" width="750" height="500"/>
		</defs>
		<clipPath id="SVGID_82_">
			<use xlink:href="#SVGID_81_"  overflow="visible"/>
		</clipPath>
		<path clip-path="url(#SVGID_82_)" fill="#244C59" d="M185.4,690.9c0.5-4.8,3.9-5.9,5.1-3.7s2,4.6,1.4,9.1s-0.6,10.7,0.5,12.8
			s7.7,4.3,7.7,4.3l0.9-19c0.3-7.1,5.7-12.1,10.5-9.4s6,11.4,5.1,16.9s-2.6,18.7-2.6,18.7c1.5,1.2,6.5-1.1,7.3-3.7
			s1.1-10.7,1.5-13.7s2.3-5.5,3.7-5.3s3.7,2.8,3.7,4.8s-1.5,17.1-1.9,19.7s-5.7,8.2-9,8.9s-8.2,0.5-8.2,0.5l-2.8,26.7l-7.1,0.1
			l-2.4-38.7c-9.6-0.7-13-8.4-13.7-9.8S184.9,695.7,185.4,690.9L185.4,690.9z M464.5,695.5c0.6-2,5-0.5,5.4,0.5s0.6,6.7,0.5,8.7
			s-0.3,16.2-0.3,20.3s4,3.1,4,3.1s0.4-3,0.4-6.8s-0.8-44.2-0.8-49.2s1.7-5,3.5-5s4,2.3,3.9,4.2s0.4,14.7,0.3,20.7l-0.4,26.1
			c3.4,0.5,4.7-1.6,4.7-3.5l-0.2-17.1c0-2.9,1.3-4.8,3-4.4s2.7,2.6,2.7,4.9s0.5,15,0,19.6s-1.7,5.8-3.2,6.1s-7.8-0.5-7.8-0.5
			l-0.3,27.7l-5.3,1l0.3-17.3c0,0-8.2-2.2-9.6-3.7s-0.9-11.7-1.2-16.9S463.9,697.6,464.5,695.5L464.5,695.5z M-66.9,688.9
			c0.8-2.2,6.5-0.6,7,0.6s0.8,7.2,0.7,9.4s-0.3,17.5-0.3,21.9s5.2,3.4,5.2,3.4s0.5-3.2,0.5-7.3s-1-47.7-1-53.2s2.2-5.4,4.5-5.4
			s5.2,2.5,5,4.6s0.5,15.9,0.3,22.3l-0.5,28.2c4.4,0.6,6.1-1.8,6.1-3.8l-0.2-18.5c0-3.1,1.7-5.1,3.9-4.7s3.5,2.8,3.5,5.3
			s0.7,16.2,0,21.2s-2.2,6.3-4.2,6.6s-10.1-0.6-10.1-0.6l-0.3,30l-6.9,1l0.3-18.7c0,0-10.7-2.4-12.4-4s-1.2-12.6-1.5-18.2
			S-67.7,691.1-66.9,688.9L-66.9,688.9z M420.3,754.5c-4-2.1-14.7-6.3-14.7-6.3c5.3,0.8,10.6,2,15.7,3.8c-1.6-2.3-9.8-9.4-9.8-9.4
			c7,3.9,12.7,8.1,12.7,8.1c-2.8-6.9-10.7-17.7-10.7-17.7c8.7,7.6,14.2,17,14.2,17c-0.5-7.1-4.7-28.9-4.7-28.9
			c3.9,8.1,8.2,26.7,8.2,26.7c0.5-9.3,4.1-21.7,4.1-21.7c0,3.4-0.8,23.8-0.8,23.8c2.1-5.9,7.9-13,7.9-13c-1.4,2.2-4.2,11.4-4.2,11.4
			c4-5.1,14.8-12.8,14.8-12.8c-5.1,4.9-12.8,15.5-12.8,15.5c12.8-5.1,22.9-4.7,22.9-4.7c-7.9,1.2-20,7.3-20,7.3
			c10.2-1,18,0.2,18,0.2c-6.4,0.2-18,2.6-18,2.6l-19.1,0.9c-8.6-2-14.4-2.8-14.4-2.8C415,753.8,420.3,754.5,420.3,754.5L420.3,754.5
			z"/>
	</g>
	<g>
		<defs>
			<rect id="SVGID_83_" x="-183.4" y="305.1" width="750" height="500"/>
		</defs>
		<clipPath id="SVGID_84_">
			<use xlink:href="#SVGID_83_"  overflow="visible"/>
		</clipPath>
		<path clip-path="url(#SVGID_84_)" fill="#244C59" d="M471.1,746.4c-1.8-0.9-6.5-2.8-6.5-2.8c3.7,0.5,6.9,1.7,6.9,1.7
			c-0.7-1-4.3-4.1-4.3-4.1c1.9,1.1,3.8,2.3,5.6,3.6c-1.2-3.1-4.7-7.8-4.7-7.8c3.8,3.3,6.2,7.5,6.2,7.5c-0.2-3.1-2.1-12.7-2.1-12.7
			c1.7,3.6,3.6,11.8,3.6,11.8c0.2-4.1,1.8-9.5,1.8-9.5c0,1.5-0.4,10.5-0.4,10.5c0.9-2.6,3.5-5.7,3.5-5.7c-0.6,1-1.9,5-1.9,5
			c1.8-2.3,6.5-5.6,6.5-5.6c-2.2,2.2-5.6,6.8-5.6,6.8c5.6-2.3,10.1-2,10.1-2c-3.5,0.5-8.8,3.2-8.8,3.2c4.5-0.4,7.9,0.1,7.9,0.1
			c-2.8,0.1-7.9,1.1-7.9,1.1l-8.4,0.4c-3.8-0.9-6.4-1.3-6.4-1.3C467.9,746.2,469.5,746.2,471.1,746.4L471.1,746.4z M503.3,746.5
			c-2.8-1.6-10.3-4.8-10.3-4.8c5.8,0.6,10.9,2.6,10.9,2.6c-1.2-1.9-7.1-7.8-7.1-7.8c5,3.1,9.1,6.5,9.1,6.5
			c-2.3-5.9-8.2-14.9-8.2-14.9c6.3,6.2,10.5,14.2,10.5,14.2c-0.7-6.2-4.7-25-4.7-25c3.1,6.9,7,22.9,7,22.9
			C510.3,732,512,721,512,721c0.2,3,0.7,20.8,0.7,20.8c1.1-5.2,4.7-11.7,4.7-11.7c-0.8,2-2.3,10.2-2.3,10.2
			c2.4-4.7,9.4-11.9,9.4-11.9c-3.2,4.5-7.9,14.1-7.9,14.1c8.4-5.1,15.3-5.1,15.3-5.1c-5.3,1.4-13.2,7.3-13.2,7.3
			c6.9-1.3,12.2-0.6,12.2-0.6c-4.3,0.5-12.1,3.1-12.1,3.1l-12.9,1.6c-5.9-1.4-10-1.8-10-1.8C499.7,746,503.3,746.4,503.3,746.5
			L503.3,746.5z"/>
	</g>
	<g>
		<defs>
			<rect id="SVGID_85_" x="-183.4" y="305.1" width="750" height="500"/>
		</defs>
		<clipPath id="SVGID_86_">
			<use xlink:href="#SVGID_85_"  overflow="visible"/>
		</clipPath>
		<path clip-path="url(#SVGID_86_)" fill="#244C59" d="M522,740.8c-1.9-2.4-7.4-7.7-7.4-7.7c3.1,1.8,6,3.9,8.6,6.3
			c-0.4-1.9-3.7-8.6-3.7-8.6c2.1,2.7,4,5.5,5.8,8.5c0-5.3-2.3-14.4-2.3-14.4c3.4,7.2,4.5,14.8,4.5,14.8c1.4-4.9,4.1-20.4,4.1-20.4
			c0.4,6.3-1.4,19.8-1.4,19.8c2.6-6.1,7.7-13.5,7.7-13.5c-0.8,2.3-6.2,15.7-6.2,15.7c2.7-3.4,7.9-6.8,7.9-6.8
			c-1.3,1.1-5.3,6.6-5.3,6.6c3.6-2.5,12-5,12-5c-4.2,2.1-11.5,7.3-11.5,7.3c9-0.3,15,2.4,15,2.4c-5.1-1.1-13.8,0.1-13.8,0.1
			c6.4,1.8,10.8,4.4,10.8,4.4c-3.9-1.4-11.5-2.6-11.5-2.6l-11.8-4c-4.7-3.4-8.1-5.4-8.1-5.4C519,739,522,740.8,522,740.8L522,740.8z
			 M195.3,756.7c-3.1-1.1-11.4-3.1-11.4-3.1c6.3,0,11.9,1.2,11.9,1.2c-1.4-1.5-8.1-5.9-8.1-5.9c3.5,1.3,6.8,2.9,10.1,4.6
			c-2.7-4.8-9.6-11.9-9.6-11.9c7.1,4.7,12,11,12,11c-1-5.2-6.2-20.8-6.2-20.8c3.6,5.5,8.6,18.8,8.6,18.8c-0.5-6.9,0.9-16.4,0.9-16.4
			c0.3,2.5,1.6,17.6,1.6,17.6c1-4.5,4.6-10.4,4.6-10.4c-0.8,1.8-2,8.8-2,8.8c2.4-4.2,9.7-11,9.7-11c-3.3,4.2-8,12.7-8,12.7
			c9-5.1,16.4-5.8,16.4-5.8c-5.7,1.7-14,7.5-14,7.5c7.4-1.8,13.2-1.7,13.2-1.7c-4.7,0.8-13,3.8-13,3.8l-13.9,2.6
			c-6.5-0.6-10.9-0.6-10.9-0.6C191.4,756.7,195.3,756.7,195.3,756.7L195.3,756.7z M6.9,759.8c-2.8-1.8-10.4-5.7-10.4-5.7
			c3.9,1,7.7,2.3,11.4,4c-1-1.8-6.6-7.7-6.6-7.7c4.9,3.4,8.9,6.9,8.9,6.9c-1.6-5.3-6.7-13.9-6.7-13.9c5.9,6.3,9.3,13.6,9.3,13.6
			c0.1-5.3-1.5-21.7-1.5-21.7c2.3,6.3,4.3,20.3,4.3,20.3c1-6.8,4.5-15.7,4.5-15.7c-0.2,2.5-2.2,17.5-2.2,17.5c1.9-4.2,6.7-9,6.7-9
			c-1.1,1.5-3.9,8.1-3.9,8.1c3.3-3.5,11.8-8.4,11.8-8.4c-4.1,3.3-10.5,10.5-10.5,10.5C31.6,755.9,39,757,39,757
			c-5.9,0.3-15.2,3.9-15.2,3.9c7.6,0.1,13.3,1.5,13.3,1.5c-4.8-0.3-13.5,0.5-13.5,0.5l-14.1-0.8C3.2,760-1,759-1,759
			C3.1,758.9,6.9,759.8,6.9,759.8L6.9,759.8z M-46.5,742.4c-2.8-1.9-10.4-5.9-10.4-5.9c3.9,1,7.7,2.4,11.3,4.1
			c-1-1.8-6.5-7.8-6.5-7.8c4.9,3.5,8.8,7,8.8,7c-1.5-5.4-6.6-14-6.6-14c5.8,6.3,9.1,13.8,9.1,13.8c0.2-5.3-1.2-21.7-1.2-21.7
			c2.2,6.3,4,20.4,4,20.4c1.1-6.8,4.7-15.6,4.7-15.6c-0.3,2.5-2.4,17.5-2.4,17.5c2-4.2,6.8-8.9,6.8-8.9c-1.2,1.5-4,8-4,8
			c3.3-3.4,11.9-8.2,11.9-8.2c-4.1,3.2-10.7,10.3-10.7,10.3c9.9-2.7,17.3-1.5,17.3-1.5c-5.9,0.2-15.3,3.7-15.3,3.7
			c7.6,0.2,13.2,1.7,13.2,1.7c-4.7-0.4-13.5,0.4-13.5,0.4l-14.1-1c-6.2-2.2-10.4-3.3-10.4-3.3C-50.3,741.4-46.5,742.4-46.5,742.4
			L-46.5,742.4z"/>
	</g>
	<g>
		<defs>
			<rect id="SVGID_87_" x="-183.4" y="305.1" width="750" height="500"/>
		</defs>
		<clipPath id="SVGID_88_">
			<use xlink:href="#SVGID_87_"  overflow="visible"/>
		</clipPath>
		<path clip-path="url(#SVGID_88_)" fill="#244C59" d="M-63.8,744.7c-2.1-0.9-7.7-2.7-7.7-2.7c4.3,0.3,8.1,1.4,8.1,1.4
			c-0.9-1.1-5.3-4.5-5.3-4.5c2.3,1.1,4.6,2.3,6.8,3.7c-1.6-3.5-6-8.7-6-8.7c4.7,3.6,7.8,8.2,7.8,8.2c-0.4-3.6-3.3-14.6-3.3-14.6
			c2.2,4,5,13.4,5,13.4c0-4.8,1.4-11.2,1.4-11.2c0.1,1.7,0.3,12.2,0.3,12.2c0.9-3.1,3.6-6.9,3.6-6.9c-0.6,1.2-1.8,6-1.8,6
			c1.9-2.8,7.2-7.1,7.2-7.1c-2.4,2.7-6.1,8.3-6.1,8.3c6.4-3.1,11.6-3.2,11.6-3.2c-4,0.9-10,4.4-10,4.4c5.2-0.8,9.2-0.5,9.2-0.5
			c-3.3,0.3-9.1,1.9-9.1,1.9l-9.7,1.1c-4.4-0.7-7.5-1-7.5-1C-66.4,744.5-63.8,744.7-63.8,744.7L-63.8,744.7z"/>
	</g>
	<g>
		<defs>
			<rect id="SVGID_89_" x="-183.4" y="305.1" width="750" height="500"/>
		</defs>
		<clipPath id="SVGID_90_">
			<use xlink:href="#SVGID_89_"  overflow="visible"/>
		</clipPath>
		<path clip-path="url(#SVGID_90_)" fill="#244C59" d="M-187.9,701.7c7,2,33.5,8.1,41.8,8.8s37.6,4.7,43.9,4.7s22.3,21.6,29.3,25.6
			s46.7,1.3,54.4,4s15.3,10.8,30,14.8s75.3,4,114.3,3.4s129-17.5,141.5-20.9c12.5-3.4,23-10.2,32.8-8.2c9.8,2,94.1,18.3,103.2,19.6
			s73.9-8.1,79.5-8.1h35.6c7.7,0,61.3-8.8,76-11.5s36.2-18.9,36.2-18.9l-2.1,95.7h-853.9V703C-225.5,703-194.9,699.6-187.9,701.7z"
			/>
	</g>
	<g>
		<defs>
			<rect id="SVGID_91_" x="-183.4" y="305.1" width="750" height="500"/>
		</defs>
		<clipPath id="SVGID_92_">
			<use xlink:href="#SVGID_91_"  overflow="visible"/>
		</clipPath>
		<path clip-path="url(#SVGID_92_)" fill="#244C59" d="M494,689.1c0.3-4.9,0-37,0-43.6s2.2-7.1,3.5-7.1s3.9,1.5,3.9,5.8l0,38.9
			c-0.3,4.9,0.9,8,3.1,8s4.1-3.7,4.4-10.3s1.6-69.9,1.6-78.5s2.9-8.6,4.8-8.1s3.5,3.1,3.5,6.8l-0.9,68.7c0,8.3,0.6,11.4,3.7,11.1
			s3.7-5.5,3.7-8.6l0.1-103.2c0.1-6.5,5-5.5,6-3.7s1.2,8.5,0.9,20.7l-1.2,94.6c-0.6,3.7,1.2,11.6,2.3,12.8s3.4-0.6,3.4-5.2l0.7-68.8
			c0.1-5.4,6-4.5,7-2.8s1.5,4,1.5,12.3s-1,54.3-1,63.4s-1.8,9.4-4.5,12.3s-8.4,1.3-11.1,4.7s-3,34.3-3,42.7l-14.8-1.2
			c0,0,1.3-48.1,0-49.9s-8-1.2-11.4-1.2S493.7,694.1,494,689.1L494,689.1z M-120.2,600.1c3.2,0,5.6,3.3,5.8,7s-0.3,35-0.3,39.7
			s5.7,6.1,5.7,6.1l0-49.8c-0.4-9.2,3.5-15.6,9.9-14.7s9.9,8.4,9.9,16.4s-1.2,71.8-1.2,71.8c3.7-1.1,6.1-2.5,6.1-6.6
			s-0.3-33.2-0.7-37.3s0.4-9.5,4.6-9.4s6.3,5.3,6.4,11.1s-0.5,29.5-3,39.4s-14.1,11.8-14.1,11.8l-3.1,43h-9.4l-4.9-66.8
			c-10.2-0.7-14-9.8-14.7-14.1s-1.5-25.3-2.3-34.5C-126.1,604-123.3,600.1-120.2,600.1L-120.2,600.1z"/>
	</g>
	<g>
		<defs>
			<rect id="SVGID_93_" x="-183.4" y="305.1" width="750" height="500"/>
		</defs>
		<clipPath id="SVGID_94_">
			<use xlink:href="#SVGID_93_"  overflow="visible"/>
		</clipPath>
		<g clip-path="url(#SVGID_94_)">
			<path fill="#244C59" d="M-102.5,715.8l-2.6,0.4c0.4-10.2,5.5-19.8,5.5-19.8C-101.7,703.4-102.5,715.8-102.5,715.8z"/>
			<path fill="#244C59" d="M-112.7,686.4c0,0,3.4,10,5.2,23c0.4-14.8,3.5-27,3.5-27c-1.5,12-0.9,33.8-0.9,33.8l-1.8,0.3l-1.9,0.3
				C-108.7,716.8-110.5,696.9-112.7,686.4L-112.7,686.4z M-116.3,717.9c0,0-6.9-10-12.6-15.1c0,0,10.1,6.4,15.5,14.6L-116.3,717.9
				L-116.3,717.9z"/>
			<path fill="#244C59" d="M-114,712.3c-2.1-5.8-5.7-15.2-8.8-21.2c0,0,3.5,5.2,7.3,12.8c-2.2-7.8-5.2-17.4-7.9-23.9
				c0,0,5,8.7,9.6,21.1c-2.1-8.4-4.9-18.3-7.3-25.3c0,0,9,18.6,13.8,40.7l-6.7,1c0,0-10.2-18-17.7-27.5
				C-131.7,690.1-121.9,699.7-114,712.3L-114,712.3z"/>
			<path fill="#244C59" d="M246.8,756.6l-2.5-1c5.1-8.6,14.1-14.4,14.1-14.4C253.3,746.2,246.8,756.6,246.8,756.6L246.8,756.6z"/>
			<path fill="#244C59" d="M251.7,725.7c0,0-1.8,10.4-6.3,22.7c7.3-12.7,15.7-21.6,15.7-21.6c-6.9,9.7-16.6,28.9-16.6,28.9l-3.5-1.5
				C241,754.2,248.7,736,251.7,725.7L251.7,725.7z M233.8,751.3c0,0-1.3-12.3-3.9-19.7c0,0,5.8,10.8,6.6,20.8L233.8,751.3
				L233.8,751.3z"/>
			<path fill="#244C59" d="M238.4,747.6c0.9-6.1,2.2-16.2,2.3-23c0,0,0.6,6.4,0.3,15c1.7-7.9,3.6-17.8,4.4-24.9
				c0,0,0.3,10.2-1.6,23.3c2.1-8.4,4.4-18.5,5.5-25.8c0,0-0.9,20.8-7.1,42.6l-6.3-2.6c0,0-0.4-21-2.5-33.1
				C233.4,719.1,237.5,732.6,238.4,747.6L238.4,747.6z"/>
			<path fill="#244C59" d="M-87.9,735.2l-2.3-1.4c6.3-7.7,16-11.9,16-11.9C-80,726-87.9,735.2-87.9,735.2L-87.9,735.2z"/>
			<path fill="#244C59" d="M-78.6,705.5c0,0-3.2,10-9.5,21.4c9.1-11.3,18.7-18.8,18.7-18.8c-8.2,8.4-20.7,25.9-20.7,25.9l-3.3-2
				C-93.3,731.9-83,715.2-78.6,705.5L-78.6,705.5z M-100,727.8c0,0,0.5-12.4-1-20.1c0,0,4.1,11.6,3.5,21.6L-100,727.8z"/>
			<path fill="#244C59" d="M-94.9,725c1.7-5.9,4.5-15.7,5.6-22.3c0,0-0.3,6.4-1.9,14.8c2.9-7.6,6.2-17,7.9-23.9
				c0,0-1.2,10.1-4.9,22.8c3.3-8,7-17.5,9.2-24.6c0,0-3.9,20.5-13.2,40.9L-98,729c0,0,2.7-20.8,2.4-33.1
				C-95.7,696-93.6,710-94.9,725L-94.9,725z"/>
		</g>
	</g>
</g>
<path opacity="0.8" fill="#E8E8E8" enable-background="new    " d="M0,53.6h226.9l-10.8-2.7c-8.6-2.2-5-16.1-22.8-9.3
	c0,0-8.1-13-22.6-6.3c0,0,1.9-9.9-6.6-14.9s-15.9,1.7-17.2,5c0,0,1.2-15.9-13.6-23.1s-26.2,4.6-29,9.4c0,0-7.3-13.5-25.7-8.9
	S62.4,30.2,62.4,30.2s-6.9-8-15-2.1C38.6,34.6,44.3,45,44.3,45S28.1,47.4,0,53.6L0,53.6z"/>
<path opacity="0.4" fill="#E8E8E8" enable-background="new    " d="M-183.4,26.8h127.7l-6.1-1.4c-4.8-1.2-2.8-8.3-12.8-4.8
	c0,0-4.6-6.7-12.7-3.2c0,0,1.1-5.1-3.7-7.6s-9,0.9-9.7,2.5c0,0,0.7-8.2-7.6-11.9s-14.8,2.4-16.3,4.8c0,0-4.1-6.9-14.5-4.6
	s-9.1,14.1-9.1,14.1s-3.9-4.1-8.4-1.1c-5,3.3-1.8,8.7-1.8,8.7S-167.6,23.6-183.4,26.8L-183.4,26.8z"/>
</svg>
