<svg xmlns="http://www.w3.org/2000/svg" viewBox="0 0 807.51 440.22"><defs><style>.cls-1{fill:#fbfcfc;}.cls-2{fill:#014355;}</style></defs><title>Artboard 6</title><g id="Layer_1" data-name="Layer 1"><path class="cls-1" d="M807.51,74.66c-1.49,2.3-20.43,29.77-78.2,32.84-60.3,3.2-74.6,50.8-120.7,66.7s-82.5,97-130.2,100.1-101.7,31.7-128.7,50.8-103.3,11.1-139.8,14.3-63.5,63.5-108,65.1c-43.3,1.56-98.82,34-101.77,35.72H807.51Z"/><path class="cls-2" d="M209.91,339.4c36.5-3.2,112.8,4.8,139.8-14.3s81-47.7,128.7-50.8,84.2-84.2,130.2-100.1,60.4-63.5,120.7-66.7C787.08,104.43,806,77,807.51,74.66V0s-38.4,79.5-110.3,81.7-94.8,53.4-134,64.3S524,248.4,419.41,243s-93.7,50.1-172.2,56.7-101.4,79.6-164.6,89.4C21.78,398.53,1.44,437.33,0,440.22H.14c2.95-1.74,58.47-34.16,101.77-35.72C146.41,402.9,173.41,342.6,209.91,339.4Z"/></g></svg>