<svg xmlns="http://www.w3.org/2000/svg" viewBox="0 0 807.51 440.22"><defs><style>.cls-1{fill:#fbfcfc;}.cls-2{fill:#014355;}</style></defs><title>Artboard 6</title><g id="Layer_1" data-name="Layer 1"><path class="cls-1" d="M0,74.66C1.49,77,20.43,104.43,78.2,107.5c60.3,3.2,74.6,50.8,120.7,66.7s82.5,97,130.2,100.1S430.8,306,457.8,325.1s103.3,11.1,139.8,14.3,63.5,63.5,108,65.1c43.31,1.56,98.82,34,101.77,35.72H0Z"/><path class="cls-2" d="M597.6,339.4c-36.5-3.2-112.8,4.8-139.8-14.3s-81-47.7-128.7-50.8-84.2-84.2-130.2-100.1-60.4-63.5-120.7-66.7C20.43,104.43,1.49,77,0,74.66V0S38.4,79.5,110.3,81.7s94.8,53.4,134,64.3,39.2,102.4,143.8,97,93.7,50.1,172.2,56.7,101.4,79.6,164.6,89.4c60.83,9.43,81.17,48.23,82.61,51.12h-.14c-3-1.74-58.46-34.16-101.77-35.72C661.1,402.9,634.1,342.6,597.6,339.4Z"/></g></svg>