<svg xmlns="http://www.w3.org/2000/svg" viewBox="0 0 332.43 694.55"><defs><style>.cls-1{fill:#fbfcfc;}.cls-2{fill:#014355;}</style></defs><title>Artboard 5</title><g id="Layer_3" data-name="Layer 3"><path class="cls-1" d="M275.62,169.68c-46.86,41-61.5,146.41-67.35,199.11s-26.36,105.42-117.13,164S3.88,694.55,3.88,694.55H332.43V20.34S322.46,128.69,275.62,169.68Z"/><path class="cls-2" d="M328.21,1C323,54,298.07,82,264.54,122.68c-37.78,45.88-66.12,117.4-72.87,194.31S105.32,481.61,48,524.78.68,694.55.68,694.55h3.2S.37,591.33,91.14,532.77s111.27-111.27,117.13-164,20.49-158.12,67.35-199.11S332.43,20.37,332.43,20.34V1Z"/></g></svg>