<svg xmlns="http://www.w3.org/2000/svg" viewBox="0 0 332.43 694.55"><defs><style>.cls-1{fill:#fbfcfc;}.cls-2{fill:#014355;}</style></defs><title>Artboard 5</title><g id="Layer_3" data-name="Layer 3"><path class="cls-1" d="M57.26,168.71c46.8,41.06,61.3,146.49,67.08,199.21s26.21,105.45,116.91,164.13,87,161.89,87,161.9L-.25,693.51.65,19.3S10.47,127.66,57.26,168.71Z"/><path class="cls-2" d="M4.89,0c5.12,53,30,81,63.51,121.75,37.72,45.93,66,117.48,72.61,194.4s86.13,164.74,143.42,208S331.5,693.94,331.5,694h-3.21s3.65-103.22-87-161.9S130.13,420.63,124.34,367.92,104.06,209.77,57.26,168.71.65,19.33.65,19.3L.67,0Z"/></g></svg>