<svg xmlns="http://www.w3.org/2000/svg" viewBox="0 0 306.46 173.9"><defs><style>.cls-1{fill:#bcbcbc;}.cls-2{fill:#231f20;opacity:0.14;isolation:isolate;}.cls-3{fill:#8e8d8b;}.cls-4{fill:#a5a5a5;}</style></defs><title>Artboard 7</title><g id="Layer_1" data-name="Layer 1"><g id="Layer_1-2" data-name="Layer 1"><g id="Pipe"><path class="cls-1" d="M216.16,125.3a13.55,13.55,0,0,1,4.1.6c3.6-1,6.1-3.3,6.1-6,0-3.6-4.5-6.6-10.2-6.6h-125c-5.6,0-10.1,3-10.1,6.6,0,2.7,2.5,5,6.1,6a13.09,13.09,0,0,1,4.1-.6Z"/><path class="cls-1" d="M216.16,137.3a13.55,13.55,0,0,1,4.1.6c3.6-1,6.1-3.3,6.1-6s-2.5-5-6.1-6a13.09,13.09,0,0,1-4.1.6h-125a13.55,13.55,0,0,1-4.1-.6c-3.6,1-6.1,3.3-6.1,6s2.5,5,6.1,6a13.09,13.09,0,0,1,4.1-.6Z"/><path class="cls-1" d="M216.16,149.4a13.55,13.55,0,0,1,4.1.6c3.6-1,6.1-3.3,6.1-6s-2.5-5-6.1-6a13.09,13.09,0,0,1-4.1.6h-125a13.55,13.55,0,0,1-4.1-.6c-3.6,1-6.1,3.3-6.1,6s2.5,5,6.1,6a13.09,13.09,0,0,1,4.1-.6Z"/><path class="cls-2" d="M93.26,117.3c-8.7,0-15.8-5.1-15.8-11.5h0c0-6.3,7.1-11.5,15.8-11.5h121.8c8.7,0,15.8,5.1,15.8,11.5h0c0,6.3-7.1,11.5-15.8,11.5Z"/><path class="cls-2" d="M93.26,169.7c-8.7,0-15.8-5.1-15.8-11.5h0c0-6.3,7.1-11.5,15.8-11.5h121.8c8.7,0,15.8,5.1,15.8,11.5h0c0,6.3-7.1,11.5-15.8,11.5Z"/><path class="cls-3" d="M87.16,113.1c-9.7,0-17.6-5.1-17.6-11.5h0c0-6.3,7.9-11.5,17.6-11.5h136.2c9.7,0,17.6,5.1,17.6,11.5h0c0,6.3-7.9,11.5-17.6,11.5Z"/><path class="cls-3" d="M87.16,173.9c-9.7,0-17.6-5.1-17.6-11.5h0c0-6.3,7.9-11.5,17.6-11.5h136.2c9.7,0,17.6,5.1,17.6,11.5h0c0,6.3-7.9,11.5-17.6,11.5Z"/><polygon class="cls-1" points="185.56 49.7 120.76 49.7 -0.14 49.7 43.46 80.9 120.76 80.9 185.56 80.9 262.86 80.9 306.46 49.7 185.56 49.7"/><rect class="cls-4" x="60.26" y="80.9" width="188.5" height="19.5"/><rect class="cls-4" x="-0.14" width="306.6" height="50.2"/></g></g></g></svg>