<?xml version="1.0" encoding="iso-8859-1"?>
<!-- Generator: Adobe Illustrator 19.0.0, SVG Export Plug-In . SVG Version: 6.00 Build 0)  -->
<svg version="1.1" id="Capa_1" xmlns="http://www.w3.org/2000/svg" xmlns:xlink="http://www.w3.org/1999/xlink" x="0px" y="0px"
	 viewBox="0 0 416.8 416.8" style="enable-background:new 0 0 416.8 416.8;" xml:space="preserve">
<g>
	<circle style="fill:#B0CA4B;" cx="208.4" cy="236" r="180.8"/>
	<circle style="fill:#EAEBC2;" cx="208.4" cy="236" r="139.2"/>
	<g>
		<path style="fill:#402810;" d="M140,244h45.6c1.2,3.6,3.2,6.4,5.6,9.2l0,0l0,0l0,0c4.4,4.4,10.4,7.2,17.2,7.2
			c6.8,0,12.8-2.8,17.2-7.2c4.4-4.4,7.2-10.4,7.2-17.2s-2.8-12.8-7.2-17.2l0,0c-2.4-2.4-5.6-4.4-9.2-5.6v-60.8c0-4.4-3.6-8-8-8
			s-8,3.6-8,8v60.8c-3.6,1.2-6.4,3.2-9.2,5.6l0,0l0,0l0,0c-2.4,2.4-4.4,5.6-5.6,9.2H140c-4.4,0-8,3.6-8,8S135.6,244,140,244z
			 M214.4,241.6c-1.6,1.6-3.6,2.4-6,2.4s-4.4-0.8-6-2.4l0,0c-1.6-1.6-2.4-3.6-2.4-6l0,0l0,0c0-2.4,0.8-4.4,2.4-6l0,0
			c1.6-1.6,3.6-2.4,6-2.4l0,0l0,0c2.4,0,4.4,0.8,6,2.4l0,0l0,0c1.6,1.6,2.4,3.6,2.4,6S215.6,240.4,214.4,241.6z"/>
		<path style="fill:#402810;" d="M156.8,16h43.6v39.2c0,4.4,3.6,8,8,8s8-3.6,8-8V16H260c4.4,0,8-3.6,8-8s-3.6-8-8-8H156.8
			c-4.4,0-8,3.6-8,8S152.4,16,156.8,16z"/>
	</g>
</g>
<g>
</g>
<g>
</g>
<g>
</g>
<g>
</g>
<g>
</g>
<g>
</g>
<g>
</g>
<g>
</g>
<g>
</g>
<g>
</g>
<g>
</g>
<g>
</g>
<g>
</g>
<g>
</g>
<g>
</g>
</svg>
