<svg height="512" viewBox="0 0 64 64" width="512" xmlns="http://www.w3.org/2000/svg"><path d="m9 3v53h-6v-48a5 5 0 0 1 5-5z" fill="#cd2a00"/><path d="m9 3h38v48h-38z" fill="#ffbcab"/><path d="m9 54h37v4h-37z" fill="#e0e0e2"/><path d="m15 9h26v8h-26z" fill="#ffeb99"/><path d="m9 54v4h38v3h-39a5 5 0 0 1 0-10h39v3z" fill="#ab2300"/><path d="m38 25h9a0 0 0 0 1 0 0v14a0 0 0 0 1 0 0h-9a2 2 0 0 1 -2-2v-10a2 2 0 0 1 2-2z" fill="#898890"/><path d="m50 25v11h-3v-13h1a2.006 2.006 0 0 1 2 2z" fill="#2d2d30"/><path d="m46 38.657a1 1 0 0 1 -.707-.293l-2.829-2.829a5 5 0 0 1 7.072-7.07l2.828 2.828a1 1 0 0 1 0 1.414l-5.657 5.657a1 1 0 0 1 -.707.293zm0-9.657a3 3 0 0 0 -2.122 5.119l2.122 2.124 4.243-4.243-2.121-2.121a2.992 2.992 0 0 0 -2.122-.879z" fill="#e0e0e2"/><rect fill="#3e3d42" height="2" rx="1" width="6" x="39" y="31"/><path d="m59.85 38.78-7.07 7.07a1.008 1.008 0 0 1 -1.42 0l-7.07-7.07a.964.964 0 0 1 -.28-.78.985.985 0 0 1 .28-.64l7.07-7.07a1.008 1.008 0 0 1 1.42 0l7.07 7.07a1.008 1.008 0 0 1 0 1.42z" fill="#ffda44"/><path d="m54.9 39.485-2.317-2.316a2.008 2.008 0 0 0 .075-.514 1.986 1.986 0 0 0 -.586-1.412 2.047 2.047 0 0 0 -2.827 0 1.989 1.989 0 0 0 1.925 3.341l2.315 2.316z" fill="#3e3d42"/><path d="m9 54h37v1h-37z" fill="#acabb1"/></svg>